<svg id="Layer_1" enable-background="new 0 0 512 512" height="512" viewBox="0 0 512 512" width="512" xmlns="http://www.w3.org/2000/svg"><path d="m295.073 8c0 45.143 22.529 54.734 30.977 56.743 1.684.401 3.428.482 5.15.308 13.926-1.411 110.286 9.192 126.513 44.417 24.106 52.328 35.662 107.219 45.298 205.023 0 0-2.17 115.567-11.643 154.345l-42.591 10.751c-16.529-49.682-3.697-176.214-3.697-176.214-27.549-40.482-39.977-155.016-39.977-155.016s-2.806 87.703-25.963 135.073c-4.252 8.698-6.501 18.231-6.296 27.915.635 29.923.521 99.634-9.778 192.655h-214.112c-10.299-93.022-10.413-162.732-9.778-192.655.206-9.683-2.044-19.216-6.296-27.915-23.156-47.37-25.963-135.073-25.963-135.073s-12.427 114.535-39.976 155.016c0 0 12.833 126.532-3.697 176.214l-42.591-10.751c-9.472-38.778-11.642-154.345-11.642-154.345 9.636-97.804 21.192-152.695 45.298-205.023 16.226-35.225 112.586-45.828 126.512-44.417 11.213 1.136 36.127-10.678 36.127-57.051z" fill="#ffc7b3"/><g fill="#eeb0b3"><path d="m98.336 205.029c2.846-17.883 3.977-33.181 4.314-45.072.105-3.716-5.262-4.345-6.017-.706-8.13 39.162-24.842 110.1-44.308 138.705 0 0 9.808 127.496-6.721 177.178l17.641 4.453c16.529-49.682 3.697-176.214 3.697-176.214 14.552-21.384 24.883-63.43 31.394-98.344z"/><path d="m399.966 204.339c1.805-19.675 1.645-34.185.677-44.731-.484-5.276-8.141-5.367-8.735-.102-13.403 118.65-34.362 114.26-33.68 146.423.35 16.477.472 45.019-1.208 82.874-.26 5.868-8.217 12.558-8.57 18.863-.436 7.796 6.705 15.32 6.107 23.75-1.464 20.643-3.445 43.127-6.107 67.168l14.617 5.416c10.259-92.656 10.412-162.183 9.785-192.3-.627-30.154 15.743-26.618 27.114-107.361z"/><path d="m457.713 109.468c-6.481-14.069-25.75-24.208-47.44-31.224 15.346 6.533 27.851 15.012 32.824 25.808 24.106 52.328 35.662 107.219 45.298 205.023 0 0-2.241 124.691-11.713 163.469l14.687-3.707c9.472-38.778 11.643-154.345 11.643-154.345-9.637-97.805-21.193-152.696-45.299-205.024z"/><path d="m346.565 438.782c-4.224 0-4.225-11.383 0-11.383 4.224 0 4.225 11.383 0 11.383z"/></g><path d="m489.469 476.607c-4.292-1.049-6.921-5.378-5.873-9.67 8.858-36.263 11.242-144.115 11.407-152.133-9.765-98.91-21.437-151.803-44.556-201.989-12.975-28.167-100.338-41.631-118.44-39.805-11.236 1.149-23.518-6.362-30.84-15.44-9.352-11.595-14.094-28.272-14.094-49.57 0-4.418 3.582-8 8-8s8 3.582 8 8c0 38.858 17.363 47.185 24.829 48.96.751.179 1.588.223 2.491.132 16.785-1.697 116.329 9.397 134.586 49.028 23.988 52.072 36.023 106.395 45.993 207.587.241 2.432-2.326 118.109-11.833 157.027-1.055 4.32-5.409 6.917-9.67 5.873z"/><path d="m12.882 470.734c-8.967-36.708-12.262-152.696-11.833-157.027 9.97-101.192 22.005-155.515 45.993-207.587 18.042-39.164 117.159-50.806 134.585-49.028.903.09 1.742.048 2.493-.132 7.464-1.775 24.828-10.102 24.828-48.96 0-4.418 3.582-8 8-8s8 3.582 8 8c0 21.298-4.742 37.975-14.094 49.569-7.325 9.081-19.606 16.589-30.841 15.44-17.172-1.744-105.273 11.225-118.438 39.806-23.12 50.187-34.791 103.079-44.556 201.989.166 8.018 2.55 115.878 11.407 152.133 1.048 4.292-1.581 8.621-5.873 9.67-4.255 1.043-8.614-1.546-9.671-5.873z"/><path d="m363.067 512h-214.113c-4.078 0-7.503-3.066-7.952-7.12-10.175-91.901-10.522-160.81-9.824-193.705.544-25.662-14.61-24.834-26.064-98.826-6.459 33.122-16.283 71.224-29.939 93.041 1.849 19.547 11.342 129.589-4.339 176.723-1.395 4.192-5.925 6.464-10.116 5.065-4.192-1.395-6.46-5.924-5.065-10.116 15.805-47.505 3.455-171.633 3.328-172.881-.19-1.873.286-3.753 1.345-5.309 26.107-38.363 38.515-150.253 38.638-151.379.454-4.176 4.079-7.3 8.257-7.13 4.198.159 7.557 3.538 7.692 7.736.027.86 3.029 86.556 25.154 131.816 15.713 32.141-1.966 46.919 16.064 216.084h199.757c18.415-172.78.209-183.654 16.064-216.084 22.125-45.261 25.126-130.956 25.154-131.816.136-4.198 3.495-7.577 7.692-7.736 4.205-.168 7.804 2.955 8.257 7.13.123 1.126 12.531 113.016 38.638 151.379 1.059 1.556 1.535 3.436 1.345 5.308-.126 1.249-12.47 125.398 3.328 172.882 1.395 4.192-.873 8.722-5.065 10.116-4.193 1.399-8.722-.873-10.116-5.065-15.682-47.134-6.188-157.176-4.339-176.723-13.656-21.817-23.48-59.919-29.939-93.041-11.369 73.435-26.604 73.341-26.064 98.826.699 32.896.351 101.804-9.824 193.705-.451 4.054-3.876 7.12-7.954 7.12z"/><path d="m176.161 240.68c-4.964 0-8.814-4.504-7.84-9.56.837-4.293 5.079-7.161 9.4-6.28 4.111.788 7.162 4.854 6.29 9.41-.864 3.99-4.242 6.43-7.85 6.43z"/><path d="m328.011 234.25c-1.101-5.726 3.958-10.502 9.41-9.41 4.089.798 7.164 4.814 6.28 9.41-1.64 8.352-13.81 8.725-15.69 0z"/><path d="m158.838 331.768c-3.768 0-7.124-2.674-7.851-6.511-.822-4.336 2.022-8.519 6.355-9.348.076-.015 7.737-1.522 18.529-5.924 4.091-1.663 8.76.296 10.428 4.388 1.668 4.091-.296 8.76-4.387 10.429-6.054 2.468-19.284 6.966-23.074 6.966zm31.987-19.625c-2.24-3.809-.969-8.712 2.839-10.952 5.757-3.387 11.209-7.183 16.203-11.283 3.415-2.802 8.457-2.308 11.259 1.107 2.804 3.415 2.308 8.456-1.107 11.26-5.634 4.625-11.772 8.9-18.242 12.707-3.825 2.248-8.721.953-10.952-2.839zm33.922-24.624c-3.34-2.892-3.704-7.944-.812-11.284 4.273-4.936 8.118-10.268 11.426-15.848 2.254-3.802 7.162-5.058 10.961-2.801 3.8 2.253 5.055 7.16 2.801 10.961-3.793 6.396-8.198 12.507-13.092 18.16-2.887 3.335-7.94 3.708-11.284.812z"/><path d="m351.684 331.627c-.369-.07-9.183-1.772-21.575-6.825-4.091-1.669-6.056-6.338-4.387-10.429 1.668-4.092 6.338-6.056 10.428-4.388 10.792 4.401 18.453 5.909 18.529 5.924 4.332.838 7.175 5.026 6.346 9.36-.826 4.309-4.973 7.18-9.341 6.358zm-41.439-16.646c-6.47-3.807-12.608-8.082-18.242-12.707-3.415-2.804-3.911-7.845-1.107-11.26 2.804-3.416 7.845-3.91 11.259-1.107 4.994 4.101 10.446 7.896 16.203 11.283 3.808 2.24 5.079 7.144 2.839 10.952-2.228 3.788-7.124 5.09-10.952 2.839zm-34.255-28.274c-4.895-5.653-9.299-11.764-13.092-18.16-2.253-3.801-.999-8.708 2.801-10.961 3.801-2.253 8.708-.999 10.961 2.801 3.309 5.58 7.153 10.912 11.426 15.848 2.892 3.34 2.528 8.393-.812 11.284-3.338 2.893-8.392 2.527-11.284-.812z"/><path d="" fill="none"/></svg>