<svg height="489pt" viewBox="-1 0 489 489.90266" width="489pt" xmlns="http://www.w3.org/2000/svg"><path d="m113.042969 124.953125s0-.003906-.003907-.003906c-1.609374-2.953125-3.519531-5.71875-5.675781-8.265625-10.90625-19.035156-4.492187-33.765625-2.382812-37.660156 4.589843-7.488282 7.238281-16.296876 7.238281-25.722657.003906-27.230469-22.070312-49.300781-49.296875-49.300781-18.105469 0-33.921875 9.765625-42.496094 24.3125l-.003906-.003906s-.046875.082031-.128906.242187c-1.496094 2.566407-2.769531 5.277344-3.785157 8.113281-5.207031 12.398438-13.554687 37.515626-11.820312 67.855469l-.234375.066407s-.011719 33.222656 19.304687 63.519531c1.847657 3.203125 3.867188 6.363281 6.085938 9.351562.128906.175781.261719.351563.394531.53125.085938.117188.171875.238281.261719.355469l.011719-.007812c2.804687 3.679687 6.113281 6.957031 9.820312 9.722656.003907 0 .003907 0 .003907.003906 8.203124 6.117188 18.367187 9.738281 29.386718 9.738281 27.226563 0 49.296875-22.070312 49.296875-49.296875 0-8.535156-2.167969-16.554687-5.976562-23.550781zm0 0" fill="#4671c6"/><path d="m300.691406 124.953125v-.003906c1.613282-2.953125 3.523438-5.71875 5.679688-8.265625 10.90625-19.035156 4.492187-33.765625 2.378906-37.660156-4.589844-7.488282-7.238281-16.296876-7.238281-25.722657 0-27.230469 22.074219-49.300781 49.300781-49.300781 18.105469 0 33.921875 9.765625 42.492188 24.3125l.007812-.003906s.042969.082031.128906.242187c1.492188 2.566407 2.769532 5.277344 3.785156 8.113281 5.203126 12.398438 13.554688 37.515626 11.816407 67.855469l.238281.066407s.007812 33.222656-19.304688 63.519531c-1.851562 3.203125-3.871093 6.363281-6.085937 9.351562-.132813.175781-.261719.351563-.394531.53125-.089844.117188-.175782.238281-.265625.355469l-.011719-.007812c-2.804688 3.679687-6.113281 6.957031-9.820312 9.722656 0 0 0 0-.003907.003906-8.199219 6.117188-18.363281 9.738281-29.382812 9.738281-27.226563 0-49.300781-22.070312-49.300781-49.296875 0-8.535156 2.167968-16.554687 5.980468-23.550781zm0 0" fill="#4671c6"/><path d="m309.984375 108.898438c2.183594-5.992188 2.742187-11.378907 2.492187-15.917969-.265624-.027344-.523437-.082031-.796874-.082031h-9.214844c-17.644532 0-32 14.359374-32 32v112.597656c0 13.464844-3.761719 26.628906-10.878906 38.058594l-4.800782 7.710937c4.558594 2.941406 8.707032 6.460937 12.332032 10.464844l6.050781-9.71875c8.699219-13.972657 13.296875-30.058594 13.296875-46.515625v-112.597656c0-8.820313 7.175781-16 16-16zm0 0" fill="#f9cfcf"/><path d="m153.746094 275.554688c-7.121094-11.433594-10.878906-24.59375-10.878906-38.058594v-112.597656c0-17.640626-14.359376-32-32-32h-9.21875c-.132813 0-.257813.035156-.390626.042968-.253906 4.546875.300782 9.949219 2.492188 15.957032h7.117188c8.820312 0 16 7.179687 16 16v112.597656c0 16.457031 4.597656 32.542968 13.296874 46.515625l6.257813 10.054687c3.601563-4.027344 7.722656-7.589844 12.265625-10.570312zm0 0" fill="#f9cfcf"/><path d="m119.738281 458.199219c3.222657.726562 6.410157 1.5 6.78125 1.589843h.003907c9.382812 2.988282 15.953124 6.957032 15.953124 6.957032h-.003906c9.769532 5.488281 16.886719 13.058594 19.890625 21.707031l.015625.003906c1.058594 1.859375 3.664063.722657 3.664063.722657 3.53125-2.175782 5.671875-3.070313 5.671875-3.070313 9.675781-4.601563 21.46875-7.289063 34.1875-7.242187 15.464844.054687 29.496094 4.140624 39.988281 10.761718l.007813-.011718c3.765624 1.09375 4.453124-1.316407 4.453124-1.316407h.011719c5.082031-15.128906 22.75-26.980469 45.121094-30.25l-.011719-.007812c2.875-1.558594.417969-3.285157.417969-3.285157l.011719-.003906c-9.582032-7.175781-15.410156-16.6875-15.335938-27.128906.066406-8.640625 4.167969-16.617188 11.074219-23.140625l-.007813-.007813s1.289063-1.417968 4.625-3.832031l-.003906-.003906s1.527344-2.046875-1.511718-3.101563l.015624-.015624c-18.949218-2.867188-34.453124-11.871094-41.742187-23.78125-.769531-1.355469-1.421875-2.753907-1.96875-4.179688l-.011719.003906s-1.195312-2.207031-4.6875-1.296875c-.222656.132813-.449218.269531-.679687.40625-.003907.007813-.007813.015625-.015625.023438-.121094.074219-.253906.136719-.378906.203125-.902344.527344-1.824219 1.027344-2.652344 1.417968-1.960938 1.003907-3.296875 1.550782-3.296875 1.550782l-.003907-.003906c-1.632812.707031-3.808593.296874-4.671874-.878907l-12.484376-17.089843h-28.472656l-12.910156 17.238281c-.894531 1.191406-3.105469 1.609375-4.773438.898437-2.046874-.875-4-1.839844-5.871093-2.871094 0 0-.011719.011719-.011719.011719s-6.402344-2.777343-8.902344 1.683594c-5.65625 12.242187-19.730468 21.925781-37.601562 26l.003906.011719c-6.925781 1.914062-2.296875 6.890625-2.296875 6.890625 7.082031 6.652343 11.242187 14.824219 11.179687 23.652343-.074218 10.019532-5.558593 19.15625-14.566406 26.15625-2.003906 1.554688-1.089844 3.976563 1.796875 4.628907zm0 0" fill="#ffea92"/><path d="m187.675781 406.617188h38.378907v77.382812h-38.378907zm0 0" fill="#f9cfcf"/><path d="m282.429688 329.53125c-2.21875-31.902344-29.53125-56.265625-61.511719-56.265625h-27.964844c-33.328125 0-61.359375 26.402344-61.796875 59.726563-.226562 17.390624 6.890625 33.117187 18.433594 44.292968 4.964844 6.0625 18.988281 15.332032 31.820312 23.113282 3.898438 2.363281 6.265625 6.589843 6.265625 11.144531v72.457031h13.050781v-77.382812h12.273438v77.382812h13.050781v-45.285156c.007813-.066406.039063-.125.039063-.195313l-.039063-9.308593v-17.664063c0-4.554687 2.367188-8.78125 6.257813-11.140625 5.546875-3.363281 11.316406-7.003906 16.484375-10.546875 0 0 24.199219-13.804687 29.4375-33.511719h-.015625c3.304687-8.210937 4.878906-17.289062 4.214844-26.816406zm0 0" fill="#f9a7a7"/><path d="m193.96875 392.617188c-1.570312-1.597657-3.347656-3.007813-5.304688-4.191407-22.421874-13.601562-27.457031-19.054687-28.242187-20.007812l-.511719-.625-.578125-.5625c-9.3125-9.015625-14.34375-21.109375-14.175781-34.050781.332031-25.320313 21.773438-45.914063 47.796875-45.914063h27.964844c24.972656 0 45.855469 18.992187 47.546875 43.238281.492187 7.109375-.59375 14.042969-3.238282 20.617188l-2.894531 7.207031c-5.300781 9.191406-16.332031 17.011719-20.46875 19.371094l-.503906.285156-.476563.328125c-4.425781 3.035156-9.75 6.441406-15.824218 10.125-1.957032 1.183594-3.726563 2.589844-5.292969 4.183594h-25.796875zm0 0" fill="#f9cfcf"/><path d="m215.316406 398.238281 10.738282-10.734375v-.011718c4.988281-3.042969 10.09375-6.277344 14.667968-9.414063l.484375-.332031.511719-.289063c3.378906-1.929687 14.980469-9.96875 20.40625-19.359375l2.609375-6.5c1.289063-3.207031 2.324219-6.523437 2.898437-9.925781.035157-.21875.054688-.433594.089844-.648437h-121.734375c1.53125 9.859374 6.203125 18.910156 13.535157 26.011718l.59375.570313.519531.636719c3.097656 3.785156 14.105469 11.347656 27.039062 19.265624v.007813l10.738281 10.738281c1.484376 1.480469 2.316407 3.492188 2.316407 5.589844v2.777344h12.273437v-2.785156c0-2.101563.832032-4.113282 2.3125-5.597657zm0 0" fill="#ffea92"/><path d="m208.804688 391.5625c-.585938-.585938-.585938-1.53125 0-2.117188l4.328124-4.332031c.585938-.582031 1.53125-.582031 2.117188 0 .585938.585938.585938 1.53125 0 2.117188l-4.328125 4.332031c-.585937.582031-1.53125.582031-2.117187 0zm0 0" fill="#6bdddd"/><path d="m203.371094 383.359375c-.472656-.472656-.472656-1.230469 0-1.703125l3.472656-3.472656c.46875-.46875 1.230469-.46875 1.699219 0s.46875 1.230468 0 1.699218l-3.472657 3.476563c-.472656.464844-1.230468.464844-1.699218 0zm0 0" fill="#6bdddd"/><path d="m196.402344 387.933594c-.828125 0-1.5-.671875-1.5-1.5v-6.125c0-.824219.671875-1.496094 1.5-1.496094.824218 0 1.496094.667969 1.496094 1.496094v6.125c0 .828125-.671876 1.5-1.496094 1.5zm0 0" fill="#6bdddd"/><path d="m220.613281 376.707031c-.652343.507813-1.597656.390625-2.105469-.261719l-3.761718-4.835937c-.507813-.652344-.390625-1.59375.261718-2.101563.652344-.507812 1.59375-.390624 2.105469.261719l3.761719 4.835938c.507812.652343.386719 1.59375-.261719 2.101562zm0 0" fill="#6bdddd"/><path d="m190.0625 383.054688c-.652344.507812-1.59375.390624-2.101562-.261719l-3.761719-4.832031c-.507813-.652344-.390625-1.59375.261719-2.101563.652343-.507813 1.59375-.390625 2.101562.261719l3.761719 4.832031c.507812.65625.390625 1.59375-.261719 2.101563zm0 0" fill="#6bdddd"/><path d="m330.605469 355.417969v23.605469l-55.3125 24.671874c-2.527344 1.125-2.527344 4.714844 0 5.84375l55.3125 24.671876v23.601562c0 14.140625 11.464843 25.601562 25.601562 25.601562h102.398438c14.140625 0 25.601562-11.460937 25.601562-25.601562v-102.398438c0-14.136718-11.460937-25.601562-25.601562-25.601562h-102.398438c-14.136719.003906-25.601562 11.46875-25.601562 25.605469zm0 0" fill="#a4c9ff"/><path d="m468.910156 457.816406c0 5.296875-4.304687 9.601563-9.597656 9.601563h-102.402344c-5.292968 0-9.597656-4.304688-9.597656-9.601563v-102.398437c0-5.292969 4.304688-9.601563 9.597656-9.601563h102.402344c5.292969 0 9.597656 4.308594 9.597656 9.601563zm0 0" fill="#e0ebfc"/><path d="m458.605469 487.417969h-102.398438c-16.320312 0-29.601562-13.28125-29.601562-29.601563v-21.007812l-52.941407-23.617188c-2.632812-1.171875-4.269531-3.695312-4.269531-6.574218 0-2.882813 1.636719-5.402344 4.265625-6.574219l52.945313-23.617188v-21.011719c0-16.320312 13.28125-29.597656 29.601562-29.597656h102.398438c16.320312 0 29.601562 13.277344 29.601562 29.597656v102.402344c0 16.320313-13.28125 29.601563-29.601562 29.601563zm-180.042969-80.796875 53.675781 23.941406c1.441407.640625 2.371094 2.074219 2.371094 3.652344v23.605468c0 11.910157 9.691406 21.601563 21.601563 21.601563h102.398437c11.910156 0 21.601563-9.691406 21.601563-21.601563v-102.398437c0-11.910156-9.691407-21.601563-21.601563-21.601563h-102.398437c-11.910157 0-21.601563 9.691407-21.601563 21.601563v23.605469c0 1.578125-.929687 3.007812-2.371094 3.652344zm52.042969-27.597656h.023437zm0 0" fill="#3762cc"/><g fill="#6bdddd"><path d="m374.699219 406.886719c-4.820313 0-8.726563-3.90625-8.726563-8.726563v-29.480468c0-4.820313 3.90625-8.726563 8.726563-8.726563 4.816406 0 8.722656 3.910156 8.722656 8.726563v29.480468c.003906 4.820313-3.90625 8.726563-8.722656 8.726563zm0 0"/><path d="m420.71875 457.726562c-3.429688 3.425782-8.988281 3.425782-12.417969 0l-20.972656-20.972656c-3.429687-3.429687-3.429687-8.988281 0-12.417968 3.425781-3.429688 8.988281-3.429688 12.414063 0l20.976562 20.972656c3.425781 3.429687 3.425781 8.988281 0 12.417968zm0 0"/><path d="m408.199219 393.984375c-3.53125-3.527344-3.53125-9.246094 0-12.773437l21.574219-21.578126c3.527343-3.527343 9.246093-3.527343 12.773437 0 3.527344 3.527344 3.527344 9.246094 0 12.773438l-21.574219 21.578125c-3.53125 3.527344-9.246094 3.527344-12.773437 0zm0 0"/><path d="m443.34375 426.949219c-3.082031-.804688-4.925781-3.949219-4.125-7.027344l4.902344-18.835937c.800781-3.082032 3.945312-4.929688 7.023437-4.128907 3.082031.804688 4.925781 3.949219 4.125 7.027344l-4.898437 18.835937c-.800782 3.082032-3.949219 4.929688-7.027344 4.128907zm0 0"/><path d="m226.667969 378.914062c-.585938-.582031-.585938-1.53125 0-2.117187l4.328125-4.328125c.585937-.585938 1.535156-.585938 2.121094 0 .582031.582031.582031 1.53125 0 2.117188l-4.332032 4.328124c-.582031.585938-1.53125.585938-2.117187 0zm0 0"/><path d="m221.234375 370.710938c-.472656-.46875-.472656-1.230469 0-1.699219l3.472656-3.472657c.46875-.472656 1.230469-.472656 1.699219 0 .472656.46875.472656 1.230469 0 1.699219l-3.472656 3.472657c-.46875.472656-1.230469.472656-1.699219 0zm0 0"/><path d="m180.289062 380.253906c-.828124 0-1.5-.671875-1.5-1.5v-6.125c0-.824218.671876-1.496094 1.5-1.496094.824219 0 1.496094.667969 1.496094 1.496094v6.125c0 .828125-.671875 1.5-1.496094 1.5zm0 0"/><path d="m238.472656 368.058594c-.652344.507812-1.59375.390625-2.101562-.261719l-3.761719-4.832031c-.507813-.652344-.390625-1.59375.261719-2.101563.652344-.507812 1.59375-.390625 2.101562.261719l3.761719 4.832031c.507813.65625.394531 1.59375-.261719 2.101563zm0 0"/><path d="m207.925781 374.410156c-.652343.511719-1.59375.390625-2.101562-.261718l-3.761719-4.832032c-.507812-.652344-.390625-1.59375.261719-2.101562.652343-.507813 1.59375-.390625 2.101562.261718l3.761719 4.832032c.511719.652344.390625 1.59375-.261719 2.101562zm0 0"/></g><path d="m187.675781 464.855469v-53.3125c0-2.054688-.503906-4.035157-1.390625-5.816407-4.019531-1.433593-8.230468-1.789062-12.320312-.785156-13.554688 3.324219-20.65625 20.074219-15.871094 37.414063 4.367188 15.804687 17.101562 26.609375 29.585938 25.886719v-3.386719zm0 0" fill="#f9a7a7"/><path d="m239.75 404.941406c-4.085938-1.003906-8.285156-.648437-12.296875.777344-.890625 1.785156-1.398437 3.765625-1.398437 5.824219v17.667969l.039062 9.304687c0 .070313-.03125.128906-.039062.199219v29.527344c12.476562.707031 25.199218-10.089844 29.5625-25.886719 4.789062-17.339844-2.316407-34.089844-15.867188-37.414063zm0 0" fill="#f9a7a7"/><path d="m226.054688 488h-13.050782c-2.207031 0-4-1.792969-4-4s1.792969-4 4-4h9.050782v-41.285156c0-.15625.011718-.3125.027343-.46875.003907-.023438.007813-.046875.011719-.074219l-.039062-26.628906c0-5.917969 3.136718-11.5 8.1875-14.558594 6.234374-3.78125 11.71875-7.289063 16.292968-10.425781.089844-.0625.183594-.121094.277344-.175782.226562-.125 22.542969-13.078124 27.46875-30.738281.046875-.269531.125-.535156.226562-.792969 3.207032-7.984374 4.535157-16.410156 3.933594-25.042968-2.050781-29.460938-27.316406-52.542969-57.523437-52.542969h-27.964844c-31.464844 0-57.390625 25.023437-57.792969 55.785156-.207031 15.722657 5.90625 30.414063 17.214844 41.367188.109375.109375.210938.21875.308594.339843 2.632812 3.210938 10.113281 9.675782 30.800781 22.226563 5.054687 3.058594 8.191406 8.640625 8.191406 14.5625v68.453125h9.054688c2.207031 0 4 1.792969 4 4s-1.792969 4-4 4h-13.054688c-2.207031 0-4-1.792969-4-4v-72.457031c0-3.140625-1.660156-6.101563-4.335937-7.722657-17.195313-10.429687-28.191406-18.4375-32.695313-23.8125-12.800781-12.484374-19.722656-29.191406-19.488281-47.066406.460938-35.113281 29.976562-63.675781 65.796875-63.675781h27.964844c34.386719 0 63.15625 26.347656 65.5 59.988281.675781 9.714844-.785157 19.207032-4.34375 28.210938-5.484375 20.421875-28.832031 34.433594-31.148438 35.777344-4.671875 3.203124-10.234375 6.761718-16.539062 10.582031-2.675781 1.621093-4.335938 4.578125-4.335938 7.71875l.039063 26.957031c0 .171875-.011719.363281-.039063.554688v44.945312c.003907 2.207031-1.789062 4-3.996093 4zm0 0" fill="#3762cc"/><path d="m186.457031 472.277344c-14.140625 0-27.535156-11.890625-32.21875-28.855469-2.984375-10.8125-1.867187-21.839844 3.066407-30.246094 3.652343-6.226562 9.230468-10.53125 15.707031-12.121093 4.691406-1.152344 9.738281-.835938 14.621093.90625.972657.347656 1.773438 1.058593 2.234376 1.980468 1.1875 2.375 1.8125 5.007813 1.8125 7.601563v56.699219c0 2.121093-1.652344 3.871093-3.769532 3.992187-.488281.03125-.972656.042969-1.453125.042969zm1.21875-4.035156h.023438zm-8.945312-59.875c-1.292969 0-2.566407.152343-3.8125.457031-4.425781 1.085937-8.125 3.988281-10.710938 8.394531-3.847656 6.558594-4.667969 15.332031-2.253906 24.074219 3.339844 12.105469 12.28125 21.214843 21.726563 22.753906v-52.503906c0-.867188-.128907-1.722657-.382813-2.5625-1.546875-.410157-3.070313-.613281-4.566406-.613281zm0 0" fill="#3762cc"/><path d="m227.253906 472.277344c-.472656 0-.953125-.011719-1.425781-.039063-2.117187-.121093-3.773437-1.875-3.773437-3.996093v-29.527344c0-.15625.007812-.3125.027343-.46875.003907-.023438.003907-.046875.007813-.074219l-.035156-26.628906c0-2.632813.609374-5.195313 1.816406-7.609375.460937-.925782 1.265625-1.636719 2.234375-1.980469 4.878906-1.738281 9.925781-2.046875 14.597656-.898437 6.472656 1.589843 12.050781 5.890624 15.703125 12.121093 4.933594 8.40625 6.050781 19.433594 3.066406 30.246094-4.679687 16.960937-18.078125 28.855469-32.21875 28.855469zm2.800782-33.222656v24.988281c9.441406-1.546875 18.367187-10.65625 21.707031-22.75 2.414062-8.742188 1.59375-17.515625-2.253907-24.074219-2.585937-4.40625-6.289062-7.308594-10.710937-8.394531-2.679687-.65625-5.488281-.605469-8.355469.152343-.257812.839844-.382812 1.699219-.382812 2.566407l.039062 26.957031c-.003906.171875-.019531.363281-.042968.554688zm0 0" fill="#3762cc"/><path d="m69.722656 201.800781c-11.523437 0-22.488281-3.625-31.714844-10.492187-.023437-.015625-.042968-.03125-.066406-.046875-3.910156-2.917969-7.40625-6.359375-10.394531-10.226563-.078125-.082031-.148437-.167968-.21875-.257812l-.1875-.253906c-.015625-.023438-.105469-.144532-.125-.164063l-.410156-.554687c-2.144531-2.898438-4.21875-6.082032-6.308594-9.699219-19.628906-30.777344-19.84375-64.121094-19.84375-65.519531 0-.402344.058594-.796876.171875-1.164063-1.46875-30.539063 6.929688-55.746094 12.152344-68.210937 1.070312-2.96875 2.4375-5.886719 4.054687-8.675782l.097657-.183594c.054687-.09375.113281-.191406.175781-.28125 9.578125-16.085937 27.109375-26.070312 45.8125-26.070312 29.390625 0 53.300781 23.910156 53.300781 53.300781 0 9.800781-2.683594 19.382813-7.769531 27.714844-1.96875 3.675781-7.320313 16.476563 2.210937 33.371094 2.253906 2.707031 4.234375 5.613281 5.890625 8.648437 0 0 .003907 0 .003907.003906 4.226562 7.765626 6.460937 16.570313 6.460937 25.457032.003906 29.394531-23.902344 53.304687-53.292969 53.304687zm-26.941406-16.90625c7.839844 5.824219 17.152344 8.90625 26.941406 8.90625 24.976563 0 45.296875-20.324219 45.296875-45.300781 0-7.554688-1.894531-15.039062-5.488281-21.636719-1.457031-2.667969-3.210938-5.226562-5.21875-7.597656-.15625-.1875-.296875-.382813-.417969-.59375-11.902343-20.773437-4.867187-37.058594-2.425781-41.554687.03125-.0625.066406-.125.105469-.183594 4.347656-7.097656 6.648437-15.273438 6.648437-23.632813 0-24.976562-20.324218-45.296875-45.300781-45.296875-15.964844 0-30.925781 8.558594-39.042969 22.34375-.023437.03125-.042968.0625-.058594.09375-.03125.050782-.058593.101563-.070312.121094-1.394531 2.398438-2.5625 4.90625-3.476562 7.453125-.023438.070313-.046876.132813-.074219.203125-5.03125 11.96875-13.210938 36.46875-11.515625 66.074219.03125.519531-.039063 1.023437-.195313 1.492187.238281 6.101563 2.238281 34.433594 18.644531 60.171875 2 3.457031 3.960938 6.472657 5.925782 9.121094l.457031.617187c.0625.070313.125.144532.183594.21875 2.582031 3.390626 5.621093 6.398438 9.03125 8.945313.011719.007813.03125.019531.050781.035156zm0 0" fill="#3762cc"/><path d="m344.011719 201.800781c-29.390625 0-53.300781-23.910156-53.300781-53.300781 0-8.890625 2.238281-17.695312 6.464843-25.460938 1.65625-3.039062 3.636719-5.945312 5.894531-8.648437 9.527344-16.890625 4.179688-29.699219 2.210938-33.375-5.085938-8.332031-7.773438-17.914063-7.773438-27.714844 0-29.390625 23.910157-53.29687475 53.300782-53.29687475 18.707031 0 36.238281 9.98046875 45.816406 26.07031275.058594.089843.117188.1875.171875.28125l.175781.320312c1.542969 2.652344 2.910156 5.566407 3.980469 8.539063 5.21875 12.464844 13.621094 37.671875 12.148437 68.210937.117188.367188.175782.761719.175782 1.164063 0 1.398437-.21875 34.742187-19.933594 65.667968-2 3.46875-4.074219 6.652344-6.246094 9.585938l-.382812.519531-3.378906-2.164062 3.226562 2.363281c-.007812.011719-.125.171875-.136719.183594-.074219.105468-.15625.203125-.242187.296875-2.96875 3.84375-6.445313 7.269531-10.332032 10.179687-.023437.015625-.042968.035156-.066406.050782-9.238281 6.882812-20.226562 10.527343-31.773437 10.527343zm-43.320313-76.851562 3.511719 1.917969c-3.59375 6.59375-5.492187 14.074218-5.492187 21.632812 0 24.976562 20.324218 45.300781 45.300781 45.300781 9.808593 0 19.144531-3.09375 26.992187-8.949219.019532-.015624.039063-.03125.058594-.042968 3.386719-2.535156 6.40625-5.53125 8.976562-8.898438.054688-.078125.121094-.152344.183594-.222656l.425782-.578125c1.988281-2.683594 3.953124-5.703125 5.859374-9.003906 16.539063-25.945313 18.507813-54.21875 18.742188-60.320313-.15625-.472656-.230469-.976562-.199219-1.496094 1.695313-29.605468-6.484375-54.105468-11.511719-66.074218-.03125-.066406-.054687-.132813-.078124-.203125-.914063-2.546875-2.082032-5.054688-3.476563-7.453125 0 0-.03125-.046875-.0625-.109375-.023437-.039063-.042969-.070313-.066406-.105469-8.117188-13.785156-23.078125-22.34375-39.042969-22.34375-24.976562 0-45.300781 20.320312-45.300781 45.300781 0 8.363281 2.300781 16.535157 6.648437 23.628907.039063.058593.074219.121093.105469.183593 2.441406 4.5 9.476563 20.789063-2.425781 41.554688-.121094.210937-.261719.410156-.417969.597656-2.007813 2.371094-3.761719 4.929687-5.214844 7.597656zm0 0" fill="#3762cc"/><path d="m267.113281 297.730469c-1.125 0-2.207031-.472657-2.964843-1.316407-3.375-3.730468-7.253907-7.023437-11.535157-9.789062-1.832031-1.183594-2.378906-3.621094-1.226562-5.472656l4.800781-7.710938c6.722656-10.796875 10.277344-23.226562 10.277344-35.945312v-112.597656c0-19.847657 16.148437-36 36-36h9.214844c.371093 0 .722656.039062 1.078124.085937 1.957032.203125 3.601563 1.8125 3.710938 3.773437.320312 5.777344-.597656 11.667969-2.726562 17.511719-.574219 1.582031-2.078126 2.628907-3.757813 2.628907h-7.523437c-6.617188 0-12 5.382812-12 12v112.597656c0 17.207031-4.804688 34.023437-13.898438 48.628906l-6.054688 9.71875c-.664062 1.0625-1.789062 1.757812-3.039062 1.871094-.121094.007812-.238281.015625-.355469.015625zm-6.914062-15.59375c2.175781 1.597656 4.25 3.320312 6.207031 5.164062l3.363281-5.40625c8.304688-13.335937 12.695313-28.6875 12.695313-44.398437v-112.597656c0-11.027344 8.96875-20 20-20h4.621094c.777343-2.679688 1.238281-5.351563 1.390624-7.992188l-6.011718-.007812c-15.441406 0-28 12.5625-28 28v112.597656c0 14.214844-3.972656 28.105468-11.484375 40.171875zm0 0" fill="#3762cc"/><path d="m146.421875 298.066406c-.113281 0-.230469-.007812-.34375-.015625-1.253906-.109375-2.386719-.800781-3.050781-1.871093l-6.261719-10.054688c-9.09375-14.609375-13.898437-31.421875-13.898437-48.628906v-112.597656c0-6.617188-5.382813-12-12-12h-7.121094c-1.679688 0-3.183594-1.046876-3.757813-2.628907-2.132812-5.859375-3.050781-11.765625-2.726562-17.554687.117187-1.996094 1.679687-3.589844 3.652343-3.761719.253907-.03125.488282-.050781.734376-.050781h9.214843c19.851563 0 36 16.148437 36 36v112.597656c0 12.714844 3.550781 25.144531 10.277344 35.945312v-.003906l4.945313 7.941406c1.148437 1.847657.617187 4.269532-1.203126 5.460938-4.222656 2.769531-8.085937 6.097656-11.476562 9.890625-.761719.851563-1.847656 1.332031-2.984375 1.332031zm-39.773437-193.167968h4.21875c11.027343 0 20 8.972656 20 20v112.597656c0 15.710937 4.386718 31.0625 12.695312 44.402344l3.554688 5.707031c1.953124-1.867188 4.015624-3.605469 6.175781-5.214844l-2.941407-4.71875h-.003906c-7.511718-12.070313-11.480468-25.960937-11.480468-40.175781v-112.597656c0-15.4375-12.5625-28-28-28h-5.613282c.152344 2.644531.617188 5.320312 1.394532 8zm0 0" fill="#3762cc"/></svg>