<svg id="Capa_1" enable-background="new 0 0 512 512" height="512" viewBox="0 0 512 512" width="512" xmlns="http://www.w3.org/2000/svg"><g><path d="m392.274 80.907-29.458-6.533c-27.568-6.123-46.816-31.132-46.816-59.374 0-8.291-6.709-15-15-15h-45-45c-8.291 0-15 6.709-15 15 0 28.242-19.248 53.251-46.816 59.374l-29.458 6.533c-34.585 7.705-58.726 37.808-58.726 73.228v342.865c0 8.291 6.709 15 15 15h19.151l70.79-76.567 90.059.153 90.059.154 70.534 76.26h19.407c8.291 0 15-6.709 15-15v-342.865c0-35.42-24.141-65.523-58.726-73.228z" fill="#ffe1ba"/><path d="m416.593 512h19.407c8.291 0 15-6.709 15-15v-342.865c0-35.42-24.141-65.522-58.726-73.228l-29.458-6.533c-27.568-6.123-46.816-31.132-46.816-59.374 0-8.291-6.709-15-15-15h-45v435.586l90.059.154z" fill="#ffbfab"/><path d="m187.211 286 10.605-10.605c5.859-5.859 5.859-15.352 0-21.211s-15.352-5.859-21.211 0l-10.605 10.605-10.605-10.605c-5.859-5.859-15.352-5.859-21.211 0s-5.859 15.352 0 21.211l10.605 10.605-10.605 10.605c-5.859 5.859-5.859 15.352 0 21.211s15.351 5.86 21.211 0l10.605-10.605 10.605 10.605c5.859 5.859 15.351 5.86 21.211 0 5.859-5.859 5.859-15.352 0-21.211z" fill="#ff7b4a"/><circle cx="346" cy="286" fill="#f89580" r="15"/><path d="m451 286c0-32.974-15.791-64.453-42.261-84.199-11.103-8.291-17.739-21.504-17.739-35.332v-.469c0-8.291-6.709-14.766-15-14.766s-15 6.943-15 15.234c0 23.247 11.147 45.454 29.81 59.385 19.189 14.312 30.19 36.241 30.19 60.147 0 41.353-33.647 75-75 75s-75-33.647-75-75c0-8.291-6.709-15-15-15s-15 6.709-15 15c0 41.353-33.647 75-75 75s-75-33.647-75-75c0-23.906 11.001-45.835 30.19-60.146 18.662-13.931 29.81-36.138 29.81-59.385v-.469c0-8.291-6.709-14.766-15-14.766s-15 6.943-15 15.234c0 13.828-6.636 27.041-17.739 35.332-26.47 19.747-42.261 51.226-42.261 84.2 0 47.255 31.392 87.321 74.412 100.449-2.931 44.192-16.991 88.021-40.261 125.551h321.442c-23.328-37.552-37.169-81.203-40.027-125.544 43.031-13.122 74.434-53.193 74.434-100.456z" fill="#ffbfab"/><path d="m451 286c0-32.974-15.791-64.453-42.261-84.199-11.103-8.291-17.739-21.504-17.739-35.332v-.469c0-8.291-6.709-14.766-15-14.766s-15 6.943-15 15.234c0 23.247 11.147 45.454 29.81 59.385 19.189 14.312 30.19 36.241 30.19 60.147 0 41.353-33.647 75-75 75s-75-33.647-75-75c0-8.291-6.709-15-15-15v241h160.593c-23.328-37.552-37.169-81.203-40.027-125.544 43.031-13.122 74.434-53.193 74.434-100.456z" fill="#f89580"/></g></svg>