<?xml version="1.0" encoding="UTF-8"?>
<svg xmlns="http://www.w3.org/2000/svg" xmlns:xlink="http://www.w3.org/1999/xlink" width="60pt" height="60pt" viewBox="0 0 60 60" version="1.1">
<g id="surface1">
<path style=" stroke:none;fill-rule:nonzero;fill:rgb(26.666667%,26.666667%,26.666667%);fill-opacity:1;" d="M 48.945312 19.71875 L 48.945312 33.25 C 48.945312 38.898438 39.070312 41.96875 29.761719 41.96875 C 20.453125 41.96875 10.578125 38.898438 10.578125 33.25 L 10.578125 19.71875 C 10.578125 18.773438 11.347656 17.972656 12.324219 17.972656 L 47.199219 17.972656 C 48.175781 17.972656 48.945312 18.773438 48.945312 19.71875 Z M 48.945312 19.71875 "/>
<path style=" stroke:none;fill-rule:nonzero;fill:rgb(16.078431%,16.078431%,16.078431%);fill-opacity:1;" d="M 48.945312 19.71875 L 48.945312 33.25 C 48.945312 38.898438 39.070312 41.96875 29.761719 41.96875 L 29.761719 17.972656 L 47.199219 17.972656 C 48.175781 17.972656 48.945312 18.773438 48.945312 19.71875 Z M 48.945312 19.71875 "/>
<path style=" stroke:none;fill-rule:nonzero;fill:rgb(43.137255%,43.137255%,43.137255%);fill-opacity:1;" d="M 59.523438 15.8125 C 59.523438 16.546875 59.074219 17.207031 58.40625 17.449219 L 30.390625 27.910156 C 30.179688 27.980469 29.972656 28.019531 29.761719 28.019531 C 29.550781 28.019531 29.34375 27.980469 29.132812 27.910156 L 1.117188 17.449219 L 1.117188 14.167969 L 29.132812 3.707031 C 29.34375 3.640625 29.550781 3.605469 29.761719 3.605469 C 29.972656 3.605469 30.179688 3.640625 30.390625 3.707031 L 58.40625 14.167969 C 59.074219 14.414062 59.523438 15.078125 59.523438 15.8125 Z M 59.523438 15.8125 "/>
<path style=" stroke:none;fill-rule:nonzero;fill:rgb(35.294118%,35.294118%,35.294118%);fill-opacity:1;" d="M 59.523438 15.8125 C 59.523438 16.546875 59.074219 17.207031 58.40625 17.449219 L 30.390625 27.910156 C 30.179688 27.980469 29.972656 28.019531 29.761719 28.019531 L 29.761719 3.605469 C 29.972656 3.605469 30.179688 3.640625 30.390625 3.707031 L 58.40625 14.167969 C 59.074219 14.414062 59.523438 15.078125 59.523438 15.8125 Z M 59.523438 15.8125 "/>
<path style=" stroke:none;fill-rule:nonzero;fill:rgb(99.215686%,74.901961%,0%);fill-opacity:1;" d="M 31.503906 15.8125 C 31.503906 16.789062 30.738281 17.554688 29.761719 17.554688 L 3.488281 17.554688 L 3.488281 43.433594 L 6.867188 53.617188 C 7.183594 54.523438 6.695312 55.535156 5.789062 55.8125 C 4.84375 56.128906 3.875 55.640625 3.59375 54.734375 L 3.488281 54.421875 C 3.347656 55.257812 2.617188 55.917969 1.742188 55.917969 C 0.765625 55.917969 0 55.152344 0 54.175781 L 0 15.8125 C 0 14.835938 0.765625 14.066406 1.742188 14.066406 L 29.761719 14.066406 C 30.738281 14.066406 31.503906 14.835938 31.503906 15.8125 Z M 31.503906 15.8125 "/>
</g>
</svg>
