<?xml version="1.0" encoding="UTF-8"?>
<svg xmlns="http://www.w3.org/2000/svg" xmlns:xlink="http://www.w3.org/1999/xlink" width="50pt" height="50pt" viewBox="0 0 50 50" version="1.1">
<g id="surface1">
<path style=" stroke:none;fill-rule:nonzero;fill:rgb(26.666667%,26.666667%,26.666667%);fill-opacity:1;" d="M 41.113281 16.5625 L 41.113281 27.929688 C 41.113281 32.675781 32.820312 35.253906 25 35.253906 C 17.179688 35.253906 8.886719 32.675781 8.886719 27.929688 L 8.886719 16.5625 C 8.886719 15.769531 9.53125 15.097656 10.351562 15.097656 L 39.648438 15.097656 C 40.46875 15.097656 41.113281 15.769531 41.113281 16.5625 Z M 41.113281 16.5625 "/>
<path style=" stroke:none;fill-rule:nonzero;fill:rgb(16.078431%,16.078431%,16.078431%);fill-opacity:1;" d="M 41.113281 16.5625 L 41.113281 27.929688 C 41.113281 32.675781 32.820312 35.253906 25 35.253906 L 25 15.097656 L 39.648438 15.097656 C 40.46875 15.097656 41.113281 15.769531 41.113281 16.5625 Z M 41.113281 16.5625 "/>
<path style=" stroke:none;fill-rule:nonzero;fill:rgb(43.137255%,43.137255%,43.137255%);fill-opacity:1;" d="M 50 13.28125 C 50 13.898438 49.621094 14.453125 49.0625 14.65625 L 25.527344 23.445312 C 25.351562 23.503906 25.175781 23.535156 25 23.535156 C 24.824219 23.535156 24.648438 23.503906 24.472656 23.445312 L 0.9375 14.65625 L 0.9375 11.902344 L 24.472656 3.113281 C 24.648438 3.058594 24.824219 3.027344 25 3.027344 C 25.175781 3.027344 25.351562 3.058594 25.527344 3.113281 L 49.0625 11.902344 C 49.621094 12.109375 50 12.664062 50 13.28125 Z M 50 13.28125 "/>
<path style=" stroke:none;fill-rule:nonzero;fill:rgb(35.294118%,35.294118%,35.294118%);fill-opacity:1;" d="M 50 13.28125 C 50 13.898438 49.621094 14.453125 49.0625 14.65625 L 25.527344 23.445312 C 25.351562 23.503906 25.175781 23.535156 25 23.535156 L 25 3.027344 C 25.175781 3.027344 25.351562 3.058594 25.527344 3.113281 L 49.0625 11.902344 C 49.621094 12.109375 50 12.664062 50 13.28125 Z M 50 13.28125 "/>
<path style=" stroke:none;fill-rule:nonzero;fill:rgb(99.215686%,74.901961%,0%);fill-opacity:1;" d="M 26.464844 13.28125 C 26.464844 14.101562 25.820312 14.746094 25 14.746094 L 2.929688 14.746094 L 2.929688 36.484375 L 5.769531 45.039062 C 6.035156 45.800781 5.625 46.648438 4.863281 46.882812 C 4.070312 47.148438 3.253906 46.738281 3.019531 45.976562 L 2.929688 45.714844 C 2.8125 46.417969 2.199219 46.972656 1.464844 46.972656 C 0.644531 46.972656 0 46.328125 0 45.507812 L 0 13.28125 C 0 12.460938 0.644531 11.816406 1.464844 11.816406 L 25 11.816406 C 25.820312 11.816406 26.464844 12.460938 26.464844 13.28125 Z M 26.464844 13.28125 "/>
</g>
</svg>
