<?xml version="1.0" encoding="UTF-8"?>
<svg xmlns="http://www.w3.org/2000/svg" xmlns:xlink="http://www.w3.org/1999/xlink" width="60pt" height="60pt" viewBox="0 0 60 60" version="1.1">
<g id="surface1">
<path style=" stroke:none;fill-rule:nonzero;fill:rgb(77.647059%,77.254902%,79.215686%);fill-opacity:1;" d="M 57.1875 23.4375 L 57.1875 57.1875 L 42.1875 57.1875 L 42.1875 21.5625 L 55.3125 21.5625 C 56.347656 21.566406 57.183594 22.402344 57.1875 23.4375 Z M 57.1875 23.4375 "/>
<path style=" stroke:none;fill-rule:nonzero;fill:rgb(100%,87.058824%,33.333333%);fill-opacity:1;" d="M 45.9375 51.5625 L 53.4375 51.5625 L 53.4375 57.1875 L 45.9375 57.1875 Z M 45.9375 51.5625 "/>
<path style=" stroke:none;fill-rule:nonzero;fill:rgb(0%,58.823529%,59.607843%);fill-opacity:1;" d="M 17.8125 2.8125 L 42.1875 2.8125 L 42.1875 57.1875 L 17.8125 57.1875 Z M 17.8125 2.8125 "/>
<path style=" stroke:none;fill-rule:nonzero;fill:rgb(0%,45.882353%,47.45098%);fill-opacity:1;" d="M 38.4375 2.8125 L 42.1875 2.8125 L 42.1875 57.1875 L 38.4375 57.1875 Z M 38.4375 2.8125 "/>
<path style=" stroke:none;fill-rule:nonzero;fill:rgb(100%,87.058824%,33.333333%);fill-opacity:1;" d="M 35.625 47.8125 L 35.625 57.1875 L 24.375 57.1875 L 24.375 47.8125 C 24.375 44.707031 26.894531 42.1875 30 42.1875 C 33.105469 42.191406 35.621094 44.707031 35.625 47.8125 Z M 35.625 47.8125 "/>
<path style=" stroke:none;fill-rule:nonzero;fill:rgb(34.117647%,64.313725%,100%);fill-opacity:1;" d="M 35.625 6.5625 L 35.625 17.8125 L 31.875 17.8125 L 31.875 14.0625 L 28.125 14.0625 L 28.125 17.8125 L 24.375 17.8125 L 24.375 6.5625 L 28.125 6.5625 L 28.125 10.3125 L 31.875 10.3125 L 31.875 6.5625 Z M 35.625 6.5625 "/>
<path style=" stroke:none;fill-rule:nonzero;fill:rgb(92.156863%,89.803922%,86.666667%);fill-opacity:1;" d="M 38.4375 30 C 38.4375 34.660156 34.660156 38.4375 30 38.4375 C 25.339844 38.4375 21.5625 34.660156 21.5625 30 C 21.5625 25.339844 25.339844 21.5625 30 21.5625 C 34.660156 21.5625 38.4375 25.339844 38.4375 30 Z M 38.4375 30 "/>
<path style=" stroke:none;fill-rule:nonzero;fill:rgb(75.294118%,67.058824%,56.862745%);fill-opacity:1;" d="M 38.4375 30 C 38.433594 33.910156 35.75 37.304688 31.945312 38.207031 C 28.144531 39.105469 24.21875 37.277344 22.460938 33.789062 C 25.710938 35.417969 29.640625 34.78125 32.210938 32.210938 C 34.78125 29.640625 35.417969 25.710938 33.789062 22.460938 C 36.636719 23.894531 38.4375 26.808594 38.4375 30 Z M 38.4375 30 "/>
<path style=" stroke:none;fill-rule:nonzero;fill:rgb(34.117647%,64.313725%,100%);fill-opacity:1;" d="M 34.6875 28.125 L 34.6875 31.875 L 31.875 31.875 L 31.875 34.6875 L 28.125 34.6875 L 28.125 31.875 L 25.3125 31.875 L 25.3125 28.125 L 28.125 28.125 L 28.125 25.3125 L 31.875 25.3125 L 31.875 28.125 Z M 34.6875 28.125 "/>
<path style=" stroke:none;fill-rule:nonzero;fill:rgb(77.647059%,77.254902%,79.215686%);fill-opacity:1;" d="M 17.8125 21.5625 L 17.8125 57.1875 L 2.8125 57.1875 L 2.8125 23.4375 C 2.816406 22.402344 3.652344 21.566406 4.6875 21.5625 Z M 17.8125 21.5625 "/>
<path style=" stroke:none;fill-rule:nonzero;fill:rgb(53.72549%,53.333333%,56.470588%);fill-opacity:1;" d="M 57.1875 23.4375 L 57.1875 57.1875 L 53.4375 57.1875 L 53.4375 23.4375 C 53.433594 22.402344 52.597656 21.566406 51.5625 21.5625 L 55.3125 21.5625 C 56.347656 21.566406 57.183594 22.402344 57.1875 23.4375 Z M 57.1875 23.4375 "/>
<path style=" stroke:none;fill-rule:nonzero;fill:rgb(53.72549%,53.333333%,56.470588%);fill-opacity:1;" d="M 14.0625 21.5625 L 17.8125 21.5625 L 17.8125 57.1875 L 14.0625 57.1875 Z M 14.0625 21.5625 "/>
<path style=" stroke:none;fill-rule:nonzero;fill:rgb(100%,87.058824%,33.333333%);fill-opacity:1;" d="M 6.5625 51.5625 L 14.0625 51.5625 L 14.0625 57.1875 L 6.5625 57.1875 Z M 6.5625 51.5625 "/>
<path style=" stroke:none;fill-rule:nonzero;fill:rgb(0%,0%,0%);fill-opacity:1;" d="M 55.3125 20.625 L 43.125 20.625 L 43.125 2.8125 C 43.125 2.292969 42.707031 1.875 42.1875 1.875 L 17.8125 1.875 C 17.292969 1.875 16.875 2.292969 16.875 2.8125 L 16.875 20.625 L 4.6875 20.625 C 3.136719 20.628906 1.878906 21.886719 1.875 23.4375 L 1.875 57.1875 C 1.875 57.707031 2.292969 58.125 2.8125 58.125 L 57.1875 58.125 C 57.707031 58.125 58.125 57.707031 58.125 57.1875 L 58.125 23.4375 C 58.121094 21.886719 56.863281 20.628906 55.3125 20.625 Z M 13.125 56.25 L 7.5 56.25 L 7.5 52.5 L 13.125 52.5 Z M 16.875 56.25 L 15 56.25 L 15 51.5625 C 15 51.042969 14.582031 50.625 14.0625 50.625 L 6.5625 50.625 C 6.042969 50.625 5.625 51.042969 5.625 51.5625 L 5.625 56.25 L 3.75 56.25 L 3.75 23.4375 C 3.75 22.917969 4.167969 22.5 4.6875 22.5 L 16.875 22.5 Z M 34.6875 56.25 L 25.3125 56.25 L 25.3125 47.8125 C 25.3125 45.222656 27.410156 43.125 30 43.125 C 32.589844 43.125 34.6875 45.222656 34.6875 47.8125 Z M 41.25 56.25 L 36.5625 56.25 L 36.5625 47.8125 C 36.5625 44.1875 33.625 41.25 30 41.25 C 26.375 41.25 23.4375 44.1875 23.4375 47.8125 L 23.4375 56.25 L 18.75 56.25 L 18.75 3.75 L 41.25 3.75 Z M 52.5 56.25 L 46.875 56.25 L 46.875 52.5 L 52.5 52.5 Z M 56.25 56.25 L 54.375 56.25 L 54.375 51.5625 C 54.375 51.042969 53.957031 50.625 53.4375 50.625 L 45.9375 50.625 C 45.417969 50.625 45 51.042969 45 51.5625 L 45 56.25 L 43.125 56.25 L 43.125 22.5 L 55.3125 22.5 C 55.832031 22.5 56.25 22.917969 56.25 23.4375 Z M 56.25 56.25 "/>
<path style=" stroke:none;fill-rule:nonzero;fill:rgb(0%,0%,0%);fill-opacity:1;" d="M 24.375 18.75 L 28.125 18.75 C 28.644531 18.75 29.0625 18.332031 29.0625 17.8125 L 29.0625 15 L 30.9375 15 L 30.9375 17.8125 C 30.9375 18.332031 31.355469 18.75 31.875 18.75 L 35.625 18.75 C 36.144531 18.75 36.5625 18.332031 36.5625 17.8125 L 36.5625 6.5625 C 36.5625 6.042969 36.144531 5.625 35.625 5.625 L 31.875 5.625 C 31.355469 5.625 30.9375 6.042969 30.9375 6.5625 L 30.9375 9.375 L 29.0625 9.375 L 29.0625 6.5625 C 29.0625 6.042969 28.644531 5.625 28.125 5.625 L 24.375 5.625 C 23.855469 5.625 23.4375 6.042969 23.4375 6.5625 L 23.4375 17.8125 C 23.4375 18.332031 23.855469 18.75 24.375 18.75 Z M 25.3125 7.5 L 27.1875 7.5 L 27.1875 10.3125 C 27.1875 10.832031 27.605469 11.25 28.125 11.25 L 31.875 11.25 C 32.394531 11.25 32.8125 10.832031 32.8125 10.3125 L 32.8125 7.5 L 34.6875 7.5 L 34.6875 16.875 L 32.8125 16.875 L 32.8125 14.0625 C 32.8125 13.542969 32.394531 13.125 31.875 13.125 L 28.125 13.125 C 27.605469 13.125 27.1875 13.542969 27.1875 14.0625 L 27.1875 16.875 L 25.3125 16.875 Z M 25.3125 7.5 "/>
<path style=" stroke:none;fill-rule:nonzero;fill:rgb(0%,0%,0%);fill-opacity:1;" d="M 27.1875 32.8125 L 27.1875 34.6875 C 27.1875 35.207031 27.605469 35.625 28.125 35.625 L 31.875 35.625 C 32.394531 35.625 32.8125 35.207031 32.8125 34.6875 L 32.8125 32.8125 L 34.6875 32.8125 C 35.207031 32.8125 35.625 32.394531 35.625 31.875 L 35.625 28.125 C 35.625 27.605469 35.207031 27.1875 34.6875 27.1875 L 32.8125 27.1875 L 32.8125 25.3125 C 32.8125 24.792969 32.394531 24.375 31.875 24.375 L 28.125 24.375 C 27.605469 24.375 27.1875 24.792969 27.1875 25.3125 L 27.1875 27.1875 L 25.3125 27.1875 C 24.792969 27.1875 24.375 27.605469 24.375 28.125 L 24.375 31.875 C 24.375 32.394531 24.792969 32.8125 25.3125 32.8125 Z M 26.25 29.0625 L 28.125 29.0625 C 28.644531 29.0625 29.0625 28.644531 29.0625 28.125 L 29.0625 26.25 L 30.9375 26.25 L 30.9375 28.125 C 30.9375 28.644531 31.355469 29.0625 31.875 29.0625 L 33.75 29.0625 L 33.75 30.9375 L 31.875 30.9375 C 31.355469 30.9375 30.9375 31.355469 30.9375 31.875 L 30.9375 33.75 L 29.0625 33.75 L 29.0625 31.875 C 29.0625 31.355469 28.644531 30.9375 28.125 30.9375 L 26.25 30.9375 Z M 26.25 29.0625 "/>
<path style=" stroke:none;fill-rule:nonzero;fill:rgb(0%,0%,0%);fill-opacity:1;" d="M 30 39.375 C 35.175781 39.375 39.375 35.175781 39.375 30 C 39.375 24.824219 35.175781 20.625 30 20.625 C 24.824219 20.625 20.625 24.824219 20.625 30 C 20.628906 35.175781 24.824219 39.371094 30 39.375 Z M 30 22.5 C 34.140625 22.5 37.5 25.859375 37.5 30 C 37.5 34.140625 34.140625 37.5 30 37.5 C 25.859375 37.5 22.5 34.140625 22.5 30 C 22.503906 25.859375 25.859375 22.503906 30 22.5 Z M 30 22.5 "/>
<path style=" stroke:none;fill-rule:nonzero;fill:rgb(0%,0%,0%);fill-opacity:1;" d="M 45 24.375 L 46.875 24.375 L 46.875 26.25 L 45 26.25 Z M 45 24.375 "/>
<path style=" stroke:none;fill-rule:nonzero;fill:rgb(0%,0%,0%);fill-opacity:1;" d="M 48.75 24.375 L 50.625 24.375 L 50.625 26.25 L 48.75 26.25 Z M 48.75 24.375 "/>
<path style=" stroke:none;fill-rule:nonzero;fill:rgb(0%,0%,0%);fill-opacity:1;" d="M 52.5 24.375 L 54.375 24.375 L 54.375 26.25 L 52.5 26.25 Z M 52.5 24.375 "/>
<path style=" stroke:none;fill-rule:nonzero;fill:rgb(0%,0%,0%);fill-opacity:1;" d="M 45 28.125 L 46.875 28.125 L 46.875 30 L 45 30 Z M 45 28.125 "/>
<path style=" stroke:none;fill-rule:nonzero;fill:rgb(0%,0%,0%);fill-opacity:1;" d="M 48.75 28.125 L 50.625 28.125 L 50.625 30 L 48.75 30 Z M 48.75 28.125 "/>
<path style=" stroke:none;fill-rule:nonzero;fill:rgb(0%,0%,0%);fill-opacity:1;" d="M 52.5 28.125 L 54.375 28.125 L 54.375 30 L 52.5 30 Z M 52.5 28.125 "/>
<path style=" stroke:none;fill-rule:nonzero;fill:rgb(0%,0%,0%);fill-opacity:1;" d="M 45 31.875 L 46.875 31.875 L 46.875 33.75 L 45 33.75 Z M 45 31.875 "/>
<path style=" stroke:none;fill-rule:nonzero;fill:rgb(0%,0%,0%);fill-opacity:1;" d="M 48.75 31.875 L 50.625 31.875 L 50.625 33.75 L 48.75 33.75 Z M 48.75 31.875 "/>
<path style=" stroke:none;fill-rule:nonzero;fill:rgb(0%,0%,0%);fill-opacity:1;" d="M 52.5 31.875 L 54.375 31.875 L 54.375 33.75 L 52.5 33.75 Z M 52.5 31.875 "/>
<path style=" stroke:none;fill-rule:nonzero;fill:rgb(0%,0%,0%);fill-opacity:1;" d="M 45 35.625 L 46.875 35.625 L 46.875 37.5 L 45 37.5 Z M 45 35.625 "/>
<path style=" stroke:none;fill-rule:nonzero;fill:rgb(0%,0%,0%);fill-opacity:1;" d="M 48.75 35.625 L 50.625 35.625 L 50.625 37.5 L 48.75 37.5 Z M 48.75 35.625 "/>
<path style=" stroke:none;fill-rule:nonzero;fill:rgb(0%,0%,0%);fill-opacity:1;" d="M 52.5 35.625 L 54.375 35.625 L 54.375 37.5 L 52.5 37.5 Z M 52.5 35.625 "/>
<path style=" stroke:none;fill-rule:nonzero;fill:rgb(0%,0%,0%);fill-opacity:1;" d="M 45 39.375 L 46.875 39.375 L 46.875 41.25 L 45 41.25 Z M 45 39.375 "/>
<path style=" stroke:none;fill-rule:nonzero;fill:rgb(0%,0%,0%);fill-opacity:1;" d="M 48.75 39.375 L 50.625 39.375 L 50.625 41.25 L 48.75 41.25 Z M 48.75 39.375 "/>
<path style=" stroke:none;fill-rule:nonzero;fill:rgb(0%,0%,0%);fill-opacity:1;" d="M 52.5 39.375 L 54.375 39.375 L 54.375 41.25 L 52.5 41.25 Z M 52.5 39.375 "/>
<path style=" stroke:none;fill-rule:nonzero;fill:rgb(0%,0%,0%);fill-opacity:1;" d="M 45 43.125 L 46.875 43.125 L 46.875 45 L 45 45 Z M 45 43.125 "/>
<path style=" stroke:none;fill-rule:nonzero;fill:rgb(0%,0%,0%);fill-opacity:1;" d="M 48.75 43.125 L 50.625 43.125 L 50.625 45 L 48.75 45 Z M 48.75 43.125 "/>
<path style=" stroke:none;fill-rule:nonzero;fill:rgb(0%,0%,0%);fill-opacity:1;" d="M 52.5 43.125 L 54.375 43.125 L 54.375 45 L 52.5 45 Z M 52.5 43.125 "/>
<path style=" stroke:none;fill-rule:nonzero;fill:rgb(0%,0%,0%);fill-opacity:1;" d="M 45 46.875 L 46.875 46.875 L 46.875 48.75 L 45 48.75 Z M 45 46.875 "/>
<path style=" stroke:none;fill-rule:nonzero;fill:rgb(0%,0%,0%);fill-opacity:1;" d="M 48.75 46.875 L 50.625 46.875 L 50.625 48.75 L 48.75 48.75 Z M 48.75 46.875 "/>
<path style=" stroke:none;fill-rule:nonzero;fill:rgb(0%,0%,0%);fill-opacity:1;" d="M 52.5 46.875 L 54.375 46.875 L 54.375 48.75 L 52.5 48.75 Z M 52.5 46.875 "/>
<path style=" stroke:none;fill-rule:nonzero;fill:rgb(0%,0%,0%);fill-opacity:1;" d="M 13.125 24.375 L 15 24.375 L 15 26.25 L 13.125 26.25 Z M 13.125 24.375 "/>
<path style=" stroke:none;fill-rule:nonzero;fill:rgb(0%,0%,0%);fill-opacity:1;" d="M 9.375 24.375 L 11.25 24.375 L 11.25 26.25 L 9.375 26.25 Z M 9.375 24.375 "/>
<path style=" stroke:none;fill-rule:nonzero;fill:rgb(0%,0%,0%);fill-opacity:1;" d="M 5.625 24.375 L 7.5 24.375 L 7.5 26.25 L 5.625 26.25 Z M 5.625 24.375 "/>
<path style=" stroke:none;fill-rule:nonzero;fill:rgb(0%,0%,0%);fill-opacity:1;" d="M 13.125 28.125 L 15 28.125 L 15 30 L 13.125 30 Z M 13.125 28.125 "/>
<path style=" stroke:none;fill-rule:nonzero;fill:rgb(0%,0%,0%);fill-opacity:1;" d="M 9.375 28.125 L 11.25 28.125 L 11.25 30 L 9.375 30 Z M 9.375 28.125 "/>
<path style=" stroke:none;fill-rule:nonzero;fill:rgb(0%,0%,0%);fill-opacity:1;" d="M 5.625 28.125 L 7.5 28.125 L 7.5 30 L 5.625 30 Z M 5.625 28.125 "/>
<path style=" stroke:none;fill-rule:nonzero;fill:rgb(0%,0%,0%);fill-opacity:1;" d="M 13.125 31.875 L 15 31.875 L 15 33.75 L 13.125 33.75 Z M 13.125 31.875 "/>
<path style=" stroke:none;fill-rule:nonzero;fill:rgb(0%,0%,0%);fill-opacity:1;" d="M 9.375 31.875 L 11.25 31.875 L 11.25 33.75 L 9.375 33.75 Z M 9.375 31.875 "/>
<path style=" stroke:none;fill-rule:nonzero;fill:rgb(0%,0%,0%);fill-opacity:1;" d="M 5.625 31.875 L 7.5 31.875 L 7.5 33.75 L 5.625 33.75 Z M 5.625 31.875 "/>
<path style=" stroke:none;fill-rule:nonzero;fill:rgb(0%,0%,0%);fill-opacity:1;" d="M 13.125 35.625 L 15 35.625 L 15 37.5 L 13.125 37.5 Z M 13.125 35.625 "/>
<path style=" stroke:none;fill-rule:nonzero;fill:rgb(0%,0%,0%);fill-opacity:1;" d="M 9.375 35.625 L 11.25 35.625 L 11.25 37.5 L 9.375 37.5 Z M 9.375 35.625 "/>
<path style=" stroke:none;fill-rule:nonzero;fill:rgb(0%,0%,0%);fill-opacity:1;" d="M 5.625 35.625 L 7.5 35.625 L 7.5 37.5 L 5.625 37.5 Z M 5.625 35.625 "/>
<path style=" stroke:none;fill-rule:nonzero;fill:rgb(0%,0%,0%);fill-opacity:1;" d="M 13.125 39.375 L 15 39.375 L 15 41.25 L 13.125 41.25 Z M 13.125 39.375 "/>
<path style=" stroke:none;fill-rule:nonzero;fill:rgb(0%,0%,0%);fill-opacity:1;" d="M 9.375 39.375 L 11.25 39.375 L 11.25 41.25 L 9.375 41.25 Z M 9.375 39.375 "/>
<path style=" stroke:none;fill-rule:nonzero;fill:rgb(0%,0%,0%);fill-opacity:1;" d="M 5.625 39.375 L 7.5 39.375 L 7.5 41.25 L 5.625 41.25 Z M 5.625 39.375 "/>
<path style=" stroke:none;fill-rule:nonzero;fill:rgb(0%,0%,0%);fill-opacity:1;" d="M 13.125 43.125 L 15 43.125 L 15 45 L 13.125 45 Z M 13.125 43.125 "/>
<path style=" stroke:none;fill-rule:nonzero;fill:rgb(0%,0%,0%);fill-opacity:1;" d="M 9.375 43.125 L 11.25 43.125 L 11.25 45 L 9.375 45 Z M 9.375 43.125 "/>
<path style=" stroke:none;fill-rule:nonzero;fill:rgb(0%,0%,0%);fill-opacity:1;" d="M 5.625 43.125 L 7.5 43.125 L 7.5 45 L 5.625 45 Z M 5.625 43.125 "/>
<path style=" stroke:none;fill-rule:nonzero;fill:rgb(0%,0%,0%);fill-opacity:1;" d="M 13.125 46.875 L 15 46.875 L 15 48.75 L 13.125 48.75 Z M 13.125 46.875 "/>
<path style=" stroke:none;fill-rule:nonzero;fill:rgb(0%,0%,0%);fill-opacity:1;" d="M 9.375 46.875 L 11.25 46.875 L 11.25 48.75 L 9.375 48.75 Z M 9.375 46.875 "/>
<path style=" stroke:none;fill-rule:nonzero;fill:rgb(0%,0%,0%);fill-opacity:1;" d="M 5.625 46.875 L 7.5 46.875 L 7.5 48.75 L 5.625 48.75 Z M 5.625 46.875 "/>
</g>
</svg>
