<svg id="Layer_1" enable-background="new 0 0 512.031 512.031" height="512" viewBox="0 0 512.031 512.031" width="512" xmlns="http://www.w3.org/2000/svg"><path d="m279.976 17.016h-47.921c-6.46 0-11.697 5.237-11.697 11.697v135.132h71.315v-135.132c.001-6.46-5.236-11.697-11.697-11.697z" fill="#e4f4ff"/><path d="m242.017 311.335h28.036v42.691h-28.036z" fill="#de9191"/><path d="m284.658 54.96c-18.594 6.097-38.654 6.1-57.25.009l-7.05-2.309v47.584l7.05 2.309c18.596 6.09 38.656 6.087 57.25-.009l7.015-2.3v-47.584z" fill="#abb8ff"/><path d="m355.475 97.159c-.38.611-24.103 38.422-84.652 51.821-9.747 2.157-19.868 2.157-29.615 0-60.547-13.398-84.271-51.208-84.652-51.821-34.334 46.781 4.391 121.977 4.391 121.977-.282.393 28.986 16.792 57.476 85.531 6.394 1.9 12.649 3.059 18.438 3.332 2.873.136 5.155 2.447 5.155 5.318 0 .75-3.117.518 27.998.518 0-3.674 2.398-5.706 5.155-5.836 5.789-.273 12.045-1.432 18.438-3.332 27.319-65.913 56.51-84.893 57.488-85.514-.105-.138 38.858-75.016 4.38-121.994zm-161.052 96.373c-9.855 0-17.844-7.989-17.844-17.844 0-9.854 7.989-17.843 17.844-17.843s17.844 7.989 17.844 17.843c0 9.856-7.989 17.844-17.844 17.844zm30.727 49.084c-8.598 0-15.567-6.969-15.567-15.566s6.97-15.567 15.567-15.567 15.567 6.97 15.567 15.567-6.969 15.566-15.567 15.566zm30.866 44.637c-8.091 0-14.649-6.559-14.649-14.649s6.559-14.648 14.649-14.648c8.091 0 14.649 6.559 14.649 14.648 0 8.091-6.559 14.649-14.649 14.649zm30.866-44.637c-8.598 0-15.567-6.969-15.567-15.566s6.97-15.567 15.567-15.567 15.567 6.97 15.567 15.567-6.97 15.566-15.567 15.566zm30.727-49.084c-9.855 0-17.844-7.989-17.844-17.844 0-9.854 7.989-17.843 17.844-17.843s17.844 7.989 17.844 17.843c0 9.856-7.989 17.844-17.844 17.844z" fill="#ffa991"/><path d="m156.557 111.232c.381.613 24.105 38.422 84.652 51.821 9.747 2.157 19.868 2.157 29.615 0 60.549-13.399 84.272-51.21 84.652-51.821 3.621 4.934 6.049-5.831 0-14.073-.38.611-24.103 38.422-84.652 51.821-9.747 2.157-19.868 2.157-29.615 0-60.547-13.398-84.271-51.208-84.652-51.821-6.05 8.242-3.621 19.007 0 14.073z" fill="#de9191"/><path d="m472.22 72.962c-51.282-24.341-94.903 4.364-116.765 24.168 34.371 46.779-4.371 122.005-4.371 122.005 30.236 40.056-34.68 86.918-75.914 88.863-2.873.136-5.155 2.447-5.155 5.318 0 32.711-1.86 42.197 7.202 55.902 56.017 84.713 121.726 18.813 120.879-26.832-.796-42.902 41.516-97.68 41.516-97.68 60.329-104.331 72.143-152.979 32.608-171.744zm-139.714 290.602c-17.016 4.076-33.35-7.135-29.947-17.156s27.466-21.803 36.13-17.156c7.664 4.111 10.833 30.235-6.183 34.312z" fill="#ffd3be"/><path d="m472.22 72.962c-29.388-13.949-56.257-10.475-77.96-1.24 17.622-3.729 37.559-2.766 58.82 7.325 39.535 18.765 27.721 67.413-32.607 171.745 0 0-42.312 54.778-41.516 97.68.367 19.776-11.767 43.34-30.188 56.821-1.33 1.437-2.713 2.82-4.147 4.143 30.738-5.303 53.981-39.784 53.476-67.048-.796-42.902 41.516-97.68 41.516-97.68 60.327-104.333 72.141-152.981 32.606-171.746z" fill="#ffa991"/><path d="m236.862 307.999c-41.234-1.944-106.15-48.807-75.914-88.863 0 0-38.741-75.226-4.371-122.005-21.862-19.805-65.483-48.51-116.765-24.169-39.535 18.765-27.721 67.413 32.607 171.745 0 0 42.312 54.778 41.516 97.68-.847 45.644 64.862 111.544 120.879 26.832 9.068-13.713 7.202-23.29 7.202-55.902.001-2.871-2.281-5.183-5.154-5.318zm-57.336 55.565c-17.016-4.077-13.847-30.202-6.183-34.312 8.665-4.647 32.727 7.134 36.131 17.156 3.402 10.022-12.933 21.233-29.948 17.156z" fill="#ffd3be"/><path d="m137.186 348.119c.796-42.902-41.516-97.68-41.516-97.68-60.328-104.333-72.142-152.98-32.607-171.746 17.916-8.504 34.894-10.528 50.339-8.725-20.896-7.864-46.145-10.034-73.59 2.993-39.535 18.766-27.721 67.414 32.607 171.746 0 0 42.312 54.778 41.516 97.68-.551 29.68 27.043 67.909 61.811 67.74-23.023-11.756-38.98-39.37-38.56-62.008z" fill="#ffe7dc"/><path d="m103.116 252.374c31.572-5.395 53.7 58.832 42.608 70.535-19.34 20.406-42.608 10.567-42.608 10.567s-13.189 16.707-13.189 42.099c0 20.477 3.676 85.6 5.099 110.047.297 5.101-3.76 9.393-8.87 9.393h-23.799c-5.319 0-9.444-4.636-8.824-9.918 3.461-29.464 10.663-114.853-21.074-121.747-33.839-7.351-27.128-46.559-12.235-58.253 22.353-17.553 44.266 11.962 48.035-1.1 3.768-13.064-11.734-43.662 34.857-51.623z" fill="#d4deff"/><path d="m31.136 320.278c22.353-17.552 44.266 11.962 48.035-1.1 3.768-13.063-11.733-43.661 34.858-51.622 9.116-1.558 17.442 2.695 24.412 9.807-8.211-15.15-20.761-27.477-35.324-24.988-46.591 7.961-31.089 38.559-34.858 51.622-3.768 13.063-25.682-16.453-48.035 1.1-12.73 9.997-19.477 40.091-.036 53.213-4-14.02 1.992-31 10.948-38.032z" fill="#e4f4ff"/><path d="m408.915 252.374c-31.572-5.395-53.7 58.832-42.608 70.535 19.341 20.406 42.608 10.567 42.608 10.567s13.189 16.707 13.189 42.099c0 20.477-3.676 85.6-5.099 110.047-.297 5.101 3.76 9.393 8.87 9.393h23.799c5.319 0 9.444-4.636 8.824-9.918-3.461-29.464-10.663-114.853 21.074-121.747 33.839-7.351 27.128-46.559 12.235-58.253-22.353-17.553-44.267 11.962-48.035-1.1-3.767-13.064 11.735-43.662-34.857-51.623z" fill="#d4deff"/><path d="m491.808 305.096c-22.353-17.553-44.266 11.962-48.035-1.1-3.768-13.063 11.733-43.661-34.858-51.622-14.026-2.396-26.184 8.949-34.397 23.324 6.12-4.948 13.091-7.606 20.598-6.324 46.591 7.961 31.089 38.559 34.858 51.622 3.768 13.063 25.682-16.453 48.035 1.1 8.931 7.013 14.915 23.917 10.982 37.915 22.904-12.009 16.133-44.458 2.817-54.915z" fill="#abb8ff"/><ellipse cx="44.453" cy="333.033" fill="#e4f4ff" rx="8.418" ry="7.498"/><ellipse cx="462.379" cy="111.079" fill="#ffa991" rx="8.38" ry="7.291" transform="matrix(.707 -.707 .707 .707 56.878 359.479)"/><ellipse cx="474.937" cy="335.448" fill="#abb8ff" rx="3.627" ry="5.535" transform="matrix(.791 -.612 .612 .791 -105.969 360.713)"/><g fill="#231f20"><path d="m496.749 298.805c-16.638-13.063-33.113-5.919-42.956-1.651-.83.36-1.779.771-2.688 1.146-.129-9.462 3.367-27.713-10.768-40.896 8.544-12.418 4.429-5.632 6.202-8.692 47.416-82.002 63.156-127.018 54.33-155.379-3.786-12.168-12.271-21.453-25.218-27.599-24.486-11.621-49.837-13.25-75.351-4.84-25.902 8.538-49.768 28.583-51.855 32.396-1.959 2.897-16.663 23.368-48.771 37.809v-22.856c1.095-.064 2.686.247 4.754-.624 6.961-2.931 6.332-13.012-.909-15.072-1.56-.444-2.609-.263-3.845-.304v-31.583c1.058-.077 2.925.311 5.229-.842 5.967-2.988 5.871-11.566-.186-14.405-2.21-1.036-3.943-.678-5.044-.752v-15.948c0-10.861-8.836-19.697-19.698-19.697h-47.92c-10.862 0-19.698 8.836-19.698 19.697v15.947c-1.196.052-2.449-.181-4.227.421-6.944 2.353-7.317 12.086-.545 14.95 2.071.876 3.634.562 4.772.629v31.583c-1.148.061-2.604-.223-4.573.548-6.557 2.567-6.851 11.807-.388 14.741 2.174.987 3.865.641 4.962.712v22.856c-32.129-14.451-46.83-34.938-48.771-37.81-2.191-4-26.004-23.874-51.855-32.396-25.512-8.412-50.864-6.782-75.35 4.84-12.948 6.146-21.433 15.431-25.219 27.599-8.826 28.361 6.914 73.377 54.33 155.379 1.949 3.362-2.493-3.944 6.202 8.692-14.004 13.06-10.628 30.959-10.77 40.895-13.08-5.384-28.576-12.895-45.642.506-20.488 16.088-24.916 63.589 15.478 72.362 16.389 3.561 22.347 48.971 14.827 112.997-1.174 10 6.633 18.852 16.77 18.852h23.799c9.694 0 17.422-8.169 16.857-17.858-1.529-26.263-5.086-89.514-5.086-109.581 0-14.11 4.642-25.301 8.02-31.575.808 54.807 76.309 119.205 135.541 29.63 2.404-3.636 4.317-7.533 5.719-11.605h17.619c1.402 4.072 3.315 7.97 5.719 11.605 59.354 89.762 134.734 24.768 135.539-29.628 3.383 6.284 8.02 17.469 8.02 31.572 0 20.067-3.557 83.318-5.086 109.581-.564 9.677 7.151 17.858 16.857 17.858h23.799c10.069 0 17.951-8.783 16.77-18.853-7.521-64.025-1.563-109.436 14.827-112.996 40.28-8.748 36.058-56.201 15.477-72.361zm-268.39-270.092c0-2.039 1.659-3.697 3.697-3.697h47.92c2.039 0 3.697 1.658 3.697 3.697v18.151c-1.609.405-11.452 4.697-27.64 4.7-11.356.001-17.913-1.861-27.674-4.703zm0 34.919c17.695 5.086 36.368 5.399 55.314.002v30.814c-.658.11-11.673 4.618-27.673 4.635-15.638.016-26.685-4.414-27.641-4.637zm0 47.576c18.709 5.345 37.414 5.173 55.314.003v26.022c-22.195 7.107-33.023 7.137-55.314.001zm-122.127 214.9c-3.316-1.403-7.163-.416-9.395 2.411-.609.771-14.911 19.206-14.911 47.057 0 28.88 5.484 110.519 4.877 111.162-.174.184-.392.277-.647.277-26.033 0-24.082.13-24.461-.296-1.115-1.256 18.299-121.23-27.538-131.188-9.687-2.104-15.573-7.408-17.493-15.764-3.005-13.075 4.348-32.407 19.463-32.407 12.465 0 23.214 11.703 33.302 6.955 7.952-3.748 7.712-13.418 7.349-22.111-.622-14.929-.712-27.095 27.687-31.945 9.787-1.672 18.106 7.438 22.8 14.163 11.961 17.142 15.127 39.046 12.587 43.053-6.604 6.935-13.725 9.51-19.707 10.188-5.048.574-10.72-.261-13.913-1.555zm121.909 38.699c-19.945 30.162-42.312 42.433-64.687 35.473-24.537-7.627-41.339-35.693-41.525-56.674 11.673-1.248 21.622-6.775 29.602-15.193 15.744-16.61-8.047-83.152-43.634-84.345-6.286-.21-16.757 2.527-22.592 4.89-3.106-4.543-5.383-7.597-6.215-8.695-43.548-75.375-59.789-119.236-52.649-142.175 2.472-7.944 7.811-13.632 16.802-17.898 43.467-20.632 81.396.704 102.792 18.394-20.403 34.367-11.01 83.431 5.703 119.858-27.174 44.093 35.427 93.449 82.279 97.384 0 30.199 1.532 37.776-5.876 48.981zm-65.037-133.559c16.282 15.185 30.28 38.616 39.886 58.509-22.43-11.409-49.367-35.426-39.886-58.509zm86.913 114.777c0-5.895 0-13.044 0-24.19h11.998c.007 15.006-.018 22.125.016 24.19zm16.524-42.69h-21.051c-5.395-4.738-8.396-2.124-21.22-5.405-11.88-27.87-32.775-65.995-57.007-84.1-13.941-29.462-24.343-72.605-9.839-102.618 18.684 20.921 47.074 37.842 82.056 45.58 14.339 3.171 25.973 1.846 38.145-1.206 28.946-7.271 57.104-22.122 76.982-44.375 14.412 29.799 4.308 72.56-9.838 102.618-24.258 18.117-45.144 56.273-57.007 84.1-12.738 3.26-15.831.669-21.221 5.406zm42.501-13.579c9.682-20.051 23.676-43.391 39.885-58.509 9.471 23.058-17.393 47.068-39.885 58.509zm-25.152 75.051c-7.341-11.104-5.837-18.303-5.837-48.985 47.872-4.505 109.255-53.571 82.234-97.391 16.572-36.234 26.094-85.92 5.701-119.84 56.319-46.571 101.179-18.402 102.802-18.402 8.991 4.267 14.33 9.954 16.801 17.898 7.139 22.939-9.101 66.8-52.649 142.174-.832 1.099-3.109 4.152-6.215 8.695-22.219-8.995-35.66-4.613-47.232 6.885-18.147 17.849-31.93 58.922-18.994 72.57 8.048 8.491 18.014 13.953 29.602 15.192-.338 38.135-55.386 98.067-106.213 21.204zm193.985-9.275c-46.157 10.027-26.083 129.55-27.538 131.188-.175.196-.397.296-.662.296-24.019-.046-24.768.527-24.683-.929 1.538-26.402 5.113-90.023 5.113-110.511 0-27.851-14.302-46.285-14.911-47.057-1.553-1.968-3.887-3.044-6.281-3.044-2.247 0-20.621 8.914-36.733-8-2.217-3.5-.117-23.544 11.379-41.259 5.519-8.504 13.99-17.521 24.054-15.949 12.489 2.14 17.1 5.539 18.557 6.208 9.88 6.287 9.51 15.515 9.084 25.729-.363 8.703-.609 18.36 7.349 22.111 13.023 6.129 28.152-15.579 44.264-2.928 9.898 7.773 17.599 38.369-8.992 44.145z"/><path d="m317.609 201.532c14.251 0 25.844-11.594 25.844-25.844s-11.594-25.843-25.844-25.843-25.844 11.593-25.844 25.843 11.593 25.844 25.844 25.844zm0-35.686c5.428 0 9.844 4.415 9.844 9.843s-4.416 9.844-9.844 9.844-9.844-4.416-9.844-9.844 4.416-9.843 9.844-9.843z"/><path d="m256.016 249.956c-12.489 0-22.649 10.16-22.649 22.648 0 12.489 10.161 22.649 22.649 22.649 12.489 0 22.649-10.16 22.649-22.649 0-12.488-10.16-22.648-22.649-22.648zm0 29.298c-3.666 0-6.649-2.982-6.649-6.649 0-3.666 2.983-6.648 6.649-6.648s6.649 2.982 6.649 6.648c0 3.667-2.983 6.649-6.649 6.649z"/><path d="m286.882 250.616c12.995 0 23.567-10.572 23.567-23.566 0-12.995-10.572-23.567-23.567-23.567s-23.568 10.572-23.568 23.567c0 12.994 10.573 23.566 23.568 23.566zm0-31.134c4.173 0 7.567 3.395 7.567 7.567s-3.394 7.566-7.567 7.566-7.567-3.395-7.567-7.566c0-4.172 3.394-7.567 7.567-7.567z"/><path d="m220.267 175.689c0-14.25-11.594-25.843-25.844-25.843-14.251 0-25.844 11.593-25.844 25.843s11.594 25.844 25.844 25.844c14.25-.001 25.844-11.594 25.844-25.844zm-25.844 9.843c-5.428 0-9.844-4.416-9.844-9.844s4.416-9.843 9.844-9.843 9.844 4.415 9.844 9.843-4.416 9.844-9.844 9.844z"/><path d="m248.718 227.05c0-12.995-10.573-23.567-23.568-23.567s-23.567 10.572-23.567 23.567c0 12.994 10.572 23.566 23.567 23.566s23.568-10.572 23.568-23.566zm-23.568 7.566c-4.173 0-7.567-3.395-7.567-7.566 0-4.173 3.394-7.567 7.567-7.567s7.567 3.395 7.567 7.567-3.395 7.566-7.567 7.566z"/><path d="m342.471 322.202c-13.589-7.291-42.675 7.463-47.488 21.634-9.393 27.66 52.54 44.978 57.615 5.725 1.286-9.94-1.826-22.906-10.127-27.359zm-11.829 33.583c-12.189 2.921-21.19-4.794-20.508-6.805 1.711-5.037 18.547-14.04 24.591-12.729 2.785 3.408 4.219 17.545-4.083 19.534z"/><path d="m169.561 322.202c-14.239 7.639-15.997 43.367 8.101 49.143 23.614 5.652 44.927-11.193 39.387-27.509-4.811-14.163-33.887-28.931-47.488-21.634zm11.829 33.583c-1.843-.442-4.437-1.56-5.671-6.144-1.514-5.621.26-11.728 1.568-13.367 6.189-1.25 22.872 7.588 24.61 12.706.719 2.116-8.434 9.692-20.507 6.805z"/></g></svg>