<svg id="Capa_1" enable-background="new 0 0 512 512" height="512" viewBox="0 0 512 512" width="512" xmlns="http://www.w3.org/2000/svg"><g id="XMLID_1302_"><path id="XMLID_1873_" d="m345.098 329.368c-26.51 0-48 21.49-48 48v57.571c0 26.51 21.49 48 48 48 26.51 0 48-21.49 48-48v-57.571c0-26.51-21.49-48-48-48z" fill="#ff9d6c"/><path id="XMLID_1320_" d="m166.902 329.368c26.51 0 48 21.49 48 48v57.571c0 26.51-21.49 48-48 48-26.51 0-48-21.49-48-48v-57.571c0-26.51 21.49-48 48-48z" fill="#ff9d6c"/><path id="XMLID_1294_" d="m256 10c-88.366 0-160 62.364-160 139.294 0 42.63 21.995 80.786 56.646 106.337 39.093 28.19 62.256 73.45 62.256 121.646v124.723h41.098 41.098v-124.722c0-48.197 23.163-93.457 62.256-121.646 34.651-25.552 56.646-63.708 56.646-106.338 0-76.93-71.634-139.294-160-139.294z" fill="#ffcb7c"/><g id="XMLID_1289_"><path id="XMLID_1292_" d="m184.023 212.698c33.414 24.178 58.273 57.784 71.977 95.732 13.704-37.948 38.563-71.553 71.977-95.732 22.148-16.407 34.846-39.506 34.846-63.404 0-47.485-47.921-86.118-106.824-86.118s-106.824 38.632-106.824 86.118c.001 23.898 12.7 46.996 34.848 63.404z" fill="#ffe6c0"/></g><g id="XMLID_1054_"><path id="XMLID_1059_" d="m345.098 319.368c-10.385 0-20.132 2.757-28.573 7.557 9.668-25.018 26.423-47.135 48.678-63.183.029-.021.057-.042.085-.063 38.584-28.45 60.712-70.142 60.712-114.385 0-82.321-76.262-149.294-170-149.294s-170 66.973-170 149.294c0 44.243 22.128 85.936 60.711 114.386.028.021.057.041.085.063 22.255 16.048 39.01 38.165 48.678 63.183-8.441-4.8-18.188-7.557-28.573-7.557-31.981 0-58 26.019-58 58v57.57c0 31.981 26.019 58 58 58 14.527 0 27.813-5.381 38-14.238v23.299c0 5.522 4.477 10 10 10h82.196c5.523 0 10-4.478 10-10v-23.3c10.187 8.857 23.473 14.238 38 14.238 31.981 0 58-26.019 58-58v-57.57c.001-31.981-26.017-58-57.999-58zm-178.196 153.57c-20.953 0-38-17.047-38-38v-57.57c0-20.953 17.047-38 38-38s38 17.047 38 38v57.57c0 20.954-17.047 38-38 38zm120.196 19.062h-21.098v-181.774c13.381-36.073 36.805-66.97 67.839-89.427.03-.021.06-.044.09-.066 24.718-18.311 38.894-44.349 38.894-71.438 0-37.813-27.097-72.249-69.033-87.73-5.183-1.913-10.932.736-12.845 5.918-1.913 5.181.737 10.932 5.918 12.844 33.995 12.55 55.96 39.622 55.96 68.969 0 20.672-11.209 40.839-30.756 55.336-28.236 20.443-50.762 47.206-66.067 78.278-15.306-31.072-37.831-57.835-66.067-78.278-19.547-14.497-30.756-34.664-30.756-55.336 0-29.347 21.965-56.418 55.958-68.968 5.181-1.912 7.831-7.663 5.917-12.844-1.912-5.183-7.664-7.832-12.844-5.918-41.935 15.481-69.031 49.917-69.031 87.729 0 27.09 14.176 53.128 38.894 71.438.03.022.06.045.09.066 31.035 22.457 54.459 53.354 67.839 89.427v181.774h-21.098v-114.632-.091c0-51.246-24.806-99.735-66.36-129.724-33.393-24.64-52.542-60.45-52.542-98.26 0-71.292 67.29-129.293 150-129.293s150 58.001 150 129.294c0 37.81-19.149 73.62-52.542 98.26-41.554 29.988-66.36 78.478-66.36 129.724v.091zm96-57.062c0 20.953-17.047 38-38 38s-38-17.047-38-38v-57.57c0-20.953 17.047-38 38-38s38 17.047 38 38z"/><path id="XMLID_1070_" d="m256 53.18c-2.63 0-5.21 1.061-7.07 2.93-1.86 1.86-2.93 4.431-2.93 7.07 0 2.63 1.07 5.21 2.93 7.07 1.86 1.859 4.44 2.93 7.07 2.93s5.21-1.07 7.07-2.93 2.93-4.44 2.93-7.07c0-2.64-1.07-5.21-2.93-7.07-1.86-1.87-4.44-2.93-7.07-2.93z"/></g></g></svg>