<?xml version="1.0" encoding="iso-8859-1"?>
<!-- Generator: Adobe Illustrator 19.0.0, SVG Export Plug-In . SVG Version: 6.00 Build 0)  -->
<svg version="1.1" id="Capa_1" xmlns="http://www.w3.org/2000/svg" xmlns:xlink="http://www.w3.org/1999/xlink" x="0px" y="0px"
	 viewBox="0 0 496 496" style="enable-background:new 0 0 496 496;" xml:space="preserve">
<rect x="8" y="8" style="fill:#798699;" width="384" height="368"/>
<rect x="40" y="8" style="fill:#AFB8C9;" width="320" height="320"/>
<rect x="376" y="408" style="fill:#92E0C0;" width="112" height="80"/>
<path style="fill:#798699;" d="M224.512,184c25.88,0,51.312-6.752,73.776-19.592C311.712,156.736,320,142.456,320,126.992
	c0-4.632-0.744-9.232-2.208-13.624L312,96l-5.312,10.616c-6.984,13.968-17.8,25.648-31.192,33.68
	C262.744,147.96,248.136,152,233.256,152H216v-32h8.512c25.88,0,51.312-6.752,73.776-19.592C311.712,92.736,320,78.456,320,62.992
	c0-4.632-0.744-9.232-2.208-13.624L312,32l-5.312,10.616c-6.984,13.968-17.8,25.648-31.192,33.68
	C262.744,83.96,248.136,88,233.256,88H216V56l-16-16l-16,16v32h-17.256c-14.88,0-29.48-4.04-42.24-11.696
	c-13.392-8.032-24.208-19.72-31.192-33.68L88,32l-5.792,17.368C80.744,53.76,80,58.36,80,62.992
	c0,15.464,8.288,29.744,21.712,37.416C124.184,113.248,149.616,120,175.488,120H184v32h-17.256c-14.88,0-29.48-4.04-42.24-11.696
	c-13.392-8.032-24.208-19.72-31.192-33.68L88,96l-5.792,17.368C80.744,117.76,80,122.36,80,126.992
	c0,15.464,8.288,29.744,21.712,37.416C124.184,177.248,149.616,184,175.488,184H184v32h-17.256c-14.88,0-29.48-4.04-42.24-11.696
	c-13.392-8.032-24.208-19.72-31.192-33.68L88,160l-5.792,17.368C80.744,181.76,80,186.36,80,190.992
	c0,15.464,8.288,29.744,21.712,37.416C124.184,241.248,149.616,248,175.488,248H184v32l16,16l16-16v-32h8.512
	c25.88,0,51.312-6.752,73.776-19.592C311.712,220.736,320,206.456,320,190.992c0-4.632-0.744-9.232-2.208-13.624L312,160
	l-5.312,10.616c-6.984,13.968-17.8,25.648-31.192,33.68C262.744,211.96,248.136,216,233.256,216H216v-32H224.512z"/>
<path style="fill:#F9E0A6;" d="M470.968,226.32l-12.736-70.032c-1.456-8.008-5.32-15.376-11.072-21.128l-40.536-40.536
	c-4.24-4.24-10-6.624-16-6.624C378.128,88,368,98.128,368,110.624c0,6,2.384,11.76,6.624,16l36.688,36.688
	c3,3,4.688,7.072,4.688,11.312v69.592c0,2.48-0.576,4.936-1.688,7.152L400,280l-1.84,5.528c-1.016-0.632-1.984-1.352-2.84-2.216
	l-36.688-36.688c-4.24-4.24-10-6.624-16-6.624C330.128,240,320,250.128,320,262.624c0,6,2.384,11.76,6.624,16l66.344,66.344
	c4.504,4.504,7.032,10.608,7.032,16.976V408h56l11.424-28.56c3.024-7.56,4.576-15.624,4.576-23.768V237.768
	C472,233.928,471.656,230.096,470.968,226.32z"/>
<polygon style="fill:#EABD8C;" points="400,392 400,408 456,408 462.4,392 "/>
<circle style="fill:#0FA196;" cx="404" cy="460" r="12"/>
<path d="M467.816,400l7.032-17.584c3.416-8.552,5.152-17.552,5.152-26.744V237.776c0-4.312-0.392-8.648-1.16-12.88l-12.736-70.024
	c-1.752-9.656-6.344-18.432-13.288-25.36L412.28,88.976c-3.488-3.488-7.72-5.896-12.28-7.368V0H0v384h392v16h-24v96h128v-96H467.816
	z M368,16h16v64.768c-6.304,1.4-11.816,4.776-16,9.4V16z M368,131.096c0.344,0.384,0.608,0.816,0.976,1.184L384,147.312v113.376
	l-16-16V131.096z M389.656,288.968c4.528,4.536,10.56,7.032,16.976,7.032H432v-16h-23.056l12.52-25.048
	c1.664-3.312,2.536-7.024,2.536-10.728v-69.6c0-6.408-2.496-12.44-7.032-16.968l-36.688-36.688c-2.72-2.728-4.28-6.488-4.28-10.344
	C376,102.56,382.56,96,390.632,96c3.904,0,7.584,1.52,10.344,4.28l40.536,40.536c4.624,4.624,7.688,10.472,8.856,16.904
	l12.736,70.024c0.592,3.304,0.896,6.672,0.896,10.032v117.896c0,7.16-1.344,14.16-4.008,20.808L450.584,400H408v-38.064
	c0-8.432-3.416-16.672-9.376-22.624l-66.344-66.344c-2.72-2.728-4.28-6.488-4.28-10.344c0-8.064,6.56-14.624,14.632-14.624
	c3.904,0,7.584,1.52,10.344,4.28L389.656,288.968z M400,262.112v-98.8l5.656,5.656c1.488,1.496,2.344,3.552,2.344,5.656v69.6
	c0,1.232-0.296,2.472-0.84,3.568L400,262.112z M16,368V16h16v320h280v-16H48V16h304v217.608c-3-0.968-6.128-1.608-9.368-1.608
	c-7.408,0-14.112,2.752-19.416,7.136c-0.832-1.656-1.704-3.296-2.744-4.856l-5.928-8.896c8.464-9.288,13.456-21.488,13.456-34.392
	c0-5.504-0.88-10.944-2.624-16.16l-6.368-19.112c5.696-8.352,8.992-18.304,8.992-28.728c0-5.504-0.88-10.944-2.624-16.16
	l-6.368-19.112C324.704,83.368,328,73.416,328,62.992c0-5.504-0.88-10.944-2.624-16.16l-5.792-17.368
	c-1.024-3.072-3.8-5.216-7.024-5.448c-3.168-0.248-6.272,1.504-7.72,4.4l-5.304,10.624c-6.312,12.624-16.048,23.136-28.152,30.4
	C259.864,76.344,246.68,80,233.264,80H224V52.688l-24-24l-24,24V80h-9.264c-13.424,0-26.608-3.656-38.12-10.56
	c-12.104-7.264-21.84-17.776-28.152-30.4l-5.312-10.616c-1.456-2.896-4.488-4.648-7.72-4.4c-3.224,0.224-6,2.376-7.024,5.448
	L74.616,46.84C72.88,52.048,72,57.488,72,62.992c0,10.424,3.296,20.376,8.992,28.736l-6.368,19.112
	C72.88,116.048,72,121.488,72,126.992c0,10.424,3.296,20.376,8.992,28.736l-6.368,19.112C72.88,180.048,72,185.488,72,190.992
	c0,12.904,4.992,25.104,13.456,34.392l-5.928,8.896C74.608,241.672,72,250.272,72,259.16C72,283.88,92.12,304,116.84,304
	c13.568,0,26.976-2.168,39.856-6.472l25.136-8.384l18.16,18.16l18.16-18.16l25.136,8.384c12.888,4.304,26.304,6.472,39.872,6.472
	c15.624,0,29.392-8.04,37.424-20.2c0.144,0.152,0.248,0.328,0.392,0.48L352,315.312V320h-24v16h24h16v-4.688l19.312,19.312
	c2.984,2.976,4.688,7.104,4.688,11.312V368H16z M294.32,221.464C273.104,233.584,248.96,240,224.504,240H224v-16h9.264
	c16.32,0,32.344-4.44,46.352-12.84c12.664-7.592,23.184-18.12,30.768-30.68c1.072,3.4,1.616,6.936,1.616,10.512
	C312,203.552,305.224,215.224,294.32,221.464z M311.992,259.16C312,275.064,299.064,288,283.16,288c-11.84,0-23.552-1.896-34.8-5.64
	L224,274.24V256h0.504c27.152,0,53.952-7.104,77.528-20.528l5.12,7.688C310.32,247.92,311.992,253.448,311.992,259.16z M224,208v-16
	h0.504c24.328,0,48.368-5.736,70.072-16.584c-6.024,8.904-13.888,16.44-23.192,22.024c-11.52,6.904-24.704,10.56-38.12,10.56H224z
	 M294.32,157.464C273.104,169.584,248.96,176,224.504,176H224v-16h9.264c16.32,0,32.344-4.44,46.352-12.84
	c12.664-7.592,23.184-18.12,30.768-30.68c1.072,3.4,1.616,6.936,1.616,10.512C312,139.552,305.224,151.224,294.32,157.464z M224,144
	v-16h0.504c24.328,0,48.368-5.736,70.072-16.584c-6.024,8.904-13.888,16.44-23.192,22.024c-11.52,6.904-24.704,10.56-38.12,10.56
	H224z M294.32,93.464C273.104,105.584,248.96,112,224.504,112H224V96h9.264c16.32,0,32.344-4.44,46.352-12.84
	c12.664-7.592,23.184-18.12,30.768-30.68c1.072,3.4,1.616,6.936,1.616,10.512C312,75.552,305.224,87.224,294.32,93.464z M208,59.312
	v217.376l-8,8l-8-8V59.312l8-8L208,59.312z M175.496,240c-24.456,0-48.592-6.416-69.816-18.536
	C94.776,215.224,88,203.552,88,190.992c0-3.576,0.544-7.112,1.616-10.512c7.584,12.56,18.112,23.088,30.768,30.68
	c14.008,8.4,30.032,12.84,46.352,12.84H176v16H175.496z M176,256v18.24l-24.352,8.112c-11.256,3.752-22.96,5.648-34.808,5.648
	C100.936,288,88,275.064,88,259.16c0-5.712,1.672-11.248,4.84-16l5.12-7.688C121.544,248.896,148.344,256,175.496,256H176z
	 M166.736,208c-13.424,0-26.608-3.656-38.12-10.56c-9.304-5.584-17.168-13.12-23.192-22.024C127.128,186.264,151.16,192,175.496,192
	H176v16H166.736z M175.496,176c-24.456,0-48.592-6.416-69.816-18.536C94.776,151.224,88,139.552,88,126.992
	c0-3.576,0.544-7.112,1.616-10.512c7.584,12.56,18.112,23.088,30.768,30.68c14.008,8.4,30.032,12.84,46.352,12.84H176v16H175.496z
	 M166.736,144c-13.424,0-26.608-3.656-38.12-10.56c-9.304-5.584-17.168-13.12-23.192-22.024C127.128,122.264,151.16,128,175.496,128
	H176v16H166.736z M175.496,112c-24.456,0-48.592-6.416-69.816-18.536C94.776,87.224,88,75.552,88,62.992
	c0-3.576,0.544-7.112,1.616-10.512c7.584,12.56,18.112,23.088,30.768,30.68C134.392,91.56,150.416,96,166.736,96H176v16H175.496z
	 M480,480h-96v-64h96V480z"/>
<g>
</g>
<g>
</g>
<g>
</g>
<g>
</g>
<g>
</g>
<g>
</g>
<g>
</g>
<g>
</g>
<g>
</g>
<g>
</g>
<g>
</g>
<g>
</g>
<g>
</g>
<g>
</g>
<g>
</g>
</svg>
