<?xml version="1.0" encoding="iso-8859-1"?>
<!-- Generator: Adobe Illustrator 19.0.0, SVG Export Plug-In . SVG Version: 6.00 Build 0)  -->
<svg version="1.1" id="Capa_1" xmlns="http://www.w3.org/2000/svg" xmlns:xlink="http://www.w3.org/1999/xlink" x="0px" y="0px"
	 viewBox="0 0 512 512" style="enable-background:new 0 0 512 512;" xml:space="preserve">
<g>
	<path style="fill:#F09372;" d="M317.793,498.131c19.605,8.275,40.533,12.972,61.793,13.869c47.669,0,70.621-88.276,70.621-114.759
		s26.483-44.138,26.483-97.103c0-70.621-35.31-97.103-35.31-123.586c0-22.298-22.619-38.399-47.468-50.387H118.088
		c-24.849,11.987-47.468,28.088-47.468,50.387c0,26.483-35.31,52.966-35.31,123.586c0,52.966,26.483,70.621,26.483,97.103
		S84.745,512,132.414,512c21.26-0.897,42.188-5.594,61.793-13.868L317.793,498.131z"/>
	<g>
		<path style="fill:#E4C05C;" d="M256,423.724c-21.401,0.247-42.562-4.517-61.793-13.911v88.327c0,7.654,6.205,13.859,13.859,13.859
			h95.868c7.654,0,13.859-6.205,13.859-13.859v-88.327C298.562,419.207,277.401,423.971,256,423.724z"/>
		<path style="fill:#E4C05C;" d="M118.088,126.165l0.134,0.129c1.392,1.333,2.807,2.696,4.244,4.088
			c0.294,0.286,0.593,0.581,0.888,0.87c1.364,1.328,2.743,2.688,4.137,4.08l0.357,0.36c22.828,22.884,49.144,55.62,60.556,119.65
			c20.661-11.473,43.967-17.333,67.597-16.997c23.63-0.336,46.936,5.524,67.597,16.997c11.412-64.03,37.728-96.767,60.556-119.65
			l0.357-0.36c1.395-1.396,2.774-2.756,4.137-4.08c0.295-0.289,0.594-0.584,0.888-0.87c1.44-1.395,2.854-2.758,4.244-4.088
			l0.134-0.129c16.847-16.136,29.813-28.196,29.813-46.716C423.724,26.483,371.347,0,326.621,0C270.713,0,300.726,70.621,256,70.621
			S241.287,0,185.379,0c-44.726,0-97.103,26.483-97.103,79.448C88.276,97.969,101.241,110.028,118.088,126.165z"/>
	</g>
	<g>
		<path style="fill:#B19046;" d="M256,167.724c-48.325,0-74.972,21.538-84.328,30.951c7.809,18.157,13.425,37.18,16.731,56.666
			c20.661-11.473,43.967-17.333,67.597-16.997c23.63-0.336,46.936,5.524,67.597,16.997c3.305-19.486,8.922-38.509,16.731-56.666
			C330.972,189.262,304.325,167.724,256,167.724z"/>
		<path style="fill:#B19046;" d="M256,467.862c-20.9-0.057-41.692-2.988-61.793-8.711v38.99c0,3.676,1.46,7.201,4.06,9.8
			s6.125,4.059,9.8,4.059h95.866c3.676,0,7.201-1.46,9.8-4.059s4.06-6.124,4.06-9.8v-38.99
			C297.692,464.874,276.9,467.805,256,467.862z"/>
	</g>
	<g>
		<path style="fill:#F0785A;" d="M361.931,229.517c-14.471-0.618-28.485,5.145-38.336,15.764
			c-20.926-10.642-44.12-16.051-67.595-15.764c-23.475-0.287-46.669,5.122-67.595,15.764c-9.851-10.619-23.865-16.381-38.336-15.764
			c-4.875,0-8.828,3.952-8.828,8.828c0,4.875,3.952,8.828,8.828,8.828c8.293-0.377,16.432,2.33,22.847,7.598
			c-4.208,2.966-8.133,6.314-11.726,10.001c-3.266,3.611-2.994,9.184,0.609,12.458c3.603,3.275,9.176,3.016,12.46-0.579
			c0.267-0.297,27.422-29.479,81.741-29.479c53.707,0,80.5,28.142,81.759,29.496c3.285,3.604,8.87,3.863,12.474,0.578
			s3.863-8.87,0.578-12.474c-3.592-3.686-7.516-7.033-11.723-9.998c6.413-5.271,14.551-7.979,22.844-7.601
			c4.875,0,8.828-3.952,8.828-8.828C370.759,233.469,366.806,229.517,361.931,229.517z"/>
		<path style="fill:#F0785A;" d="M361.931,417.841c-9.149,0.521-18.092-2.842-24.631-9.261c4.878-3.288,9.405-7.069,13.511-11.282
			c3.266-3.611,2.994-9.184-0.609-12.458c-3.603-3.275-9.176-3.016-12.46,0.579c-0.267,0.297-27.422,29.478-81.741,29.478
			c-53.862,0-80.655-28.301-81.741-29.478c-3.283-3.595-8.857-3.854-12.46-0.579c-3.603,3.275-3.875,8.848-0.609,12.458
			c4.105,4.213,8.633,7.994,13.511,11.282c-6.54,6.418-15.483,9.781-24.631,9.261c-4.875,0-8.828,3.952-8.828,8.828
			s3.952,8.828,8.828,8.828c15.423,0.733,30.284-5.876,40.069-17.821c20.487,10.045,43.046,15.14,65.862,14.877
			c22.816,0.264,45.375-4.832,65.862-14.877c9.785,11.944,24.646,18.553,40.069,17.821c4.875,0,8.828-3.952,8.828-8.828
			S366.806,417.841,361.931,417.841z"/>
	</g>
</g>
<g>
</g>
<g>
</g>
<g>
</g>
<g>
</g>
<g>
</g>
<g>
</g>
<g>
</g>
<g>
</g>
<g>
</g>
<g>
</g>
<g>
</g>
<g>
</g>
<g>
</g>
<g>
</g>
<g>
</g>
</svg>
