<?xml version="1.0" standalone="no"?>
<!DOCTYPE svg PUBLIC "-//W3C//DTD SVG 20010904//EN"
 "http://www.w3.org/TR/2001/REC-SVG-20010904/DTD/svg10.dtd">
<svg version="1.0" xmlns="http://www.w3.org/2000/svg"
 width="183.000000pt" height="239.000000pt" viewBox="0 0 183.000000 239.000000"
 preserveAspectRatio="xMidYMid meet">
<metadata>
Created by potrace 1.16, written by Peter Selinger 2001-2019
</metadata>
<g transform="translate(0.000000,239.000000) scale(0.100000,-0.100000)"
fill="#000000" stroke="none">
<path d="M0 1430 c0 -936 1 -962 20 -1018 42 -119 127 -210 238 -254 51 -20
79 -22 277 -26 211 -3 222 -5 262 -28 23 -13 58 -43 77 -66 l36 -42 43 46 c76
82 97 88 320 88 148 0 206 4 248 16 136 40 249 133 288 239 21 55 21 69 21
1030 l0 975 -915 0 -915 0 0 -960z m1808 -27 l-3 -968 -28 -57 c-30 -60 -105
-137 -166 -168 -96 -48 -128 -53 -357 -59 l-222 -6 -48 -35 c-27 -19 -43 -27
-36 -18 7 8 31 29 54 44 l41 29 216 6 c241 7 283 16 383 83 65 43 104 92 135
165 l23 56 0 943 0 942 -885 0 -885 0 2 -942 3 -943 32 -67 c40 -85 97 -146
175 -189 l63 -34 225 -5 c221 -5 226 -5 270 -32 25 -14 56 -39 70 -54 l25 -28
-34 27 c-74 61 -78 62 -326 67 -227 5 -231 5 -287 33 -82 40 -143 104 -186
195 l-37 77 -3 953 -2 952 895 0 895 0 -2 -967z m-918 347 l0 -400 -322 2
-323 3 318 2 317 3 0 390 0 390 -317 3 -318 2 323 3 322 2 0 -400z m373 393
l-323 -3 0 -390 0 -390 315 0 315 0 3 343 2 342 3 -347 2 -348 -330 0 -330 0
0 400 0 400 333 -2 332 -3 -322 -2z m-740 -89 c18 -6 11 -43 -10 -61 -13 -10
-13 -17 3 -52 10 -23 21 -41 24 -41 18 0 76 38 73 47 -5 15 17 27 28 16 6 -6
-9 -28 -37 -57 -42 -44 -49 -48 -82 -43 -32 5 -34 4 -14 -5 12 -6 22 -15 22
-20 0 -5 5 -6 10 -3 6 4 10 -6 10 -22 -1 -27 -1 -28 -17 -8 l-16 20 8 -20 c16
-41 24 -102 23 -165 -1 -58 -2 -61 -8 -25 l-7 40 -2 -37 c-1 -27 -6 -38 -16
-38 -8 0 -16 8 -16 18 -1 14 -2 13 -6 -3 -9 -38 -34 -55 -80 -55 -46 0 -57 16
-27 41 21 17 44 64 43 86 0 16 -1 16 -9 -2 -6 -14 -9 -4 -9 38 -1 32 6 74 14
94 8 20 15 66 15 104 0 37 5 71 10 74 6 3 10 17 10 30 0 23 23 55 40 55 5 0
15 -3 23 -6z m-105 -54 c6 -22 12 -53 12 -70 0 -24 -4 -30 -22 -31 -17 -1 -19
-2 -5 -6 21 -5 21 -1 -3 -51 -11 -22 -20 -47 -20 -54 0 -7 -5 -20 -11 -28 -8
-11 -9 -3 -5 33 3 26 3 47 1 47 -13 0 -65 -96 -65 -119 0 -19 -3 -22 -11 -14
-16 16 2 176 25 224 17 37 73 109 84 109 4 0 13 -18 20 -40z m1000 -192 l2
-188 -25 0 c-15 0 -24 -4 -20 -10 3 -5 0 -10 -7 -10 -10 0 -12 40 -10 201 l3
200 27 -3 27 -3 3 -187z m-709 -44 c21 -18 33 -38 37 -66 4 -22 10 -34 14 -28
4 7 14 -8 22 -35 14 -40 14 -47 1 -52 -26 -10 -6 -94 30 -125 19 -17 27 -31
22 -37 -12 -10 -87 -2 -80 9 5 9 -46 0 -60 -10 -15 -11 -133 -24 -199 -21 -35
1 -68 8 -80 18 -20 14 -17 15 44 10 51 -4 58 -3 35 4 -16 6 -57 8 -90 5 -67
-5 -79 -1 -87 31 -10 40 14 58 80 58 45 0 66 5 81 19 16 14 30 17 62 13 23 -3
45 -10 48 -15 3 -5 27 -19 54 -30 39 -17 47 -18 47 -6 0 8 -4 12 -10 9 -6 -4
-10 12 -10 39 0 46 7 55 27 35 7 -7 20 -8 34 -3 13 4 27 7 32 6 9 -2 9 12 0
21 -3 4 -15 0 -25 -10 -17 -15 -18 -14 -20 18 -1 19 -1 44 0 57 0 13 -5 22
-13 22 -8 0 -17 11 -21 24 -3 14 -12 27 -20 30 -18 7 -18 36 0 36 8 0 28 -12
45 -26z m857 -1319 c-8 -12 -30 -30 -50 -39 -32 -15 -90 -16 -616 -14 l-582 3
-34 37 c-25 28 -34 46 -33 70 l1 33 7 -37 c4 -20 14 -44 21 -53 37 -45 38 -45
635 -45 588 0 585 0 633 43 21 20 22 28 24 191 l2 171 3 -169 c3 -134 1 -173
-11 -191z m-556 185 c0 -5 14 -10 30 -10 l30 0 -1 -72 c-1 -105 -8 -122 -47
-126 l-32 -3 0 94 c0 87 -2 96 -22 110 -23 16 -23 16 10 16 17 1 32 -3 32 -9z
m-470 -80 l0 -80 -50 0 -50 0 0 80 0 80 50 0 50 0 0 -80z m880 -10 l0 -80 -50
0 -50 0 0 80 0 80 50 0 50 0 0 -80z"/>
</g>
</svg>
